%TF.GenerationSoftware,KiCad,Pcbnew,(5.1.6)-1*%
%TF.CreationDate,2020-07-20T16:14:19+09:00*%
%TF.ProjectId,PWM-LT8500,50574d2d-4c54-4383-9530-302e6b696361,rev?*%
%TF.SameCoordinates,Original*%
%TF.FileFunction,Legend,Top*%
%TF.FilePolarity,Positive*%
%FSLAX46Y46*%
G04 Gerber Fmt 4.6, Leading zero omitted, Abs format (unit mm)*
G04 Created by KiCad (PCBNEW (5.1.6)-1) date 2020-07-20 16:14:19*
%MOMM*%
%LPD*%
G01*
G04 APERTURE LIST*
%ADD10C,0.150000*%
%ADD11C,0.100000*%
%ADD12C,0.120000*%
G04 APERTURE END LIST*
D10*
X65380000Y-44632380D02*
X65380000Y-44870476D01*
X65141904Y-44775238D02*
X65380000Y-44870476D01*
X65618095Y-44775238D01*
X65237142Y-45060952D02*
X65380000Y-44870476D01*
X65522857Y-45060952D01*
X47000000Y-43882380D02*
X47000000Y-44120476D01*
X46761904Y-44025238D02*
X47000000Y-44120476D01*
X47238095Y-44025238D01*
X46857142Y-44310952D02*
X47000000Y-44120476D01*
X47142857Y-44310952D01*
D11*
X53012380Y-33345238D02*
X53036190Y-33273809D01*
X53036190Y-33154761D01*
X53012380Y-33107142D01*
X52988571Y-33083333D01*
X52940952Y-33059523D01*
X52893333Y-33059523D01*
X52845714Y-33083333D01*
X52821904Y-33107142D01*
X52798095Y-33154761D01*
X52774285Y-33250000D01*
X52750476Y-33297619D01*
X52726666Y-33321428D01*
X52679047Y-33345238D01*
X52631428Y-33345238D01*
X52583809Y-33321428D01*
X52560000Y-33297619D01*
X52536190Y-33250000D01*
X52536190Y-33130952D01*
X52560000Y-33059523D01*
X52988571Y-32559523D02*
X53012380Y-32583333D01*
X53036190Y-32654761D01*
X53036190Y-32702380D01*
X53012380Y-32773809D01*
X52964761Y-32821428D01*
X52917142Y-32845238D01*
X52821904Y-32869047D01*
X52750476Y-32869047D01*
X52655238Y-32845238D01*
X52607619Y-32821428D01*
X52560000Y-32773809D01*
X52536190Y-32702380D01*
X52536190Y-32654761D01*
X52560000Y-32583333D01*
X52583809Y-32559523D01*
X53036190Y-32107142D02*
X53036190Y-32345238D01*
X52536190Y-32345238D01*
X53036190Y-31940476D02*
X52536190Y-31940476D01*
X53036190Y-31654761D02*
X52750476Y-31869047D01*
X52536190Y-31654761D02*
X52821904Y-31940476D01*
X50496190Y-33285714D02*
X49996190Y-33285714D01*
X50353333Y-33119047D01*
X49996190Y-32952380D01*
X50496190Y-32952380D01*
X50496190Y-32714285D02*
X49996190Y-32714285D01*
X50472380Y-32500000D02*
X50496190Y-32428571D01*
X50496190Y-32309523D01*
X50472380Y-32261904D01*
X50448571Y-32238095D01*
X50400952Y-32214285D01*
X50353333Y-32214285D01*
X50305714Y-32238095D01*
X50281904Y-32261904D01*
X50258095Y-32309523D01*
X50234285Y-32404761D01*
X50210476Y-32452380D01*
X50186666Y-32476190D01*
X50139047Y-32500000D01*
X50091428Y-32500000D01*
X50043809Y-32476190D01*
X50020000Y-32452380D01*
X49996190Y-32404761D01*
X49996190Y-32285714D01*
X50020000Y-32214285D01*
X49996190Y-31904761D02*
X49996190Y-31809523D01*
X50020000Y-31761904D01*
X50067619Y-31714285D01*
X50162857Y-31690476D01*
X50329523Y-31690476D01*
X50424761Y-31714285D01*
X50472380Y-31761904D01*
X50496190Y-31809523D01*
X50496190Y-31904761D01*
X50472380Y-31952380D01*
X50424761Y-32000000D01*
X50329523Y-32023809D01*
X50162857Y-32023809D01*
X50067619Y-32000000D01*
X50020000Y-31952380D01*
X49996190Y-31904761D01*
X47956190Y-33285714D02*
X47456190Y-33285714D01*
X47813333Y-33119047D01*
X47456190Y-32952380D01*
X47956190Y-32952380D01*
X47456190Y-32619047D02*
X47456190Y-32523809D01*
X47480000Y-32476190D01*
X47527619Y-32428571D01*
X47622857Y-32404761D01*
X47789523Y-32404761D01*
X47884761Y-32428571D01*
X47932380Y-32476190D01*
X47956190Y-32523809D01*
X47956190Y-32619047D01*
X47932380Y-32666666D01*
X47884761Y-32714285D01*
X47789523Y-32738095D01*
X47622857Y-32738095D01*
X47527619Y-32714285D01*
X47480000Y-32666666D01*
X47456190Y-32619047D01*
X47932380Y-32214285D02*
X47956190Y-32142857D01*
X47956190Y-32023809D01*
X47932380Y-31976190D01*
X47908571Y-31952380D01*
X47860952Y-31928571D01*
X47813333Y-31928571D01*
X47765714Y-31952380D01*
X47741904Y-31976190D01*
X47718095Y-32023809D01*
X47694285Y-32119047D01*
X47670476Y-32166666D01*
X47646666Y-32190476D01*
X47599047Y-32214285D01*
X47551428Y-32214285D01*
X47503809Y-32190476D01*
X47480000Y-32166666D01*
X47456190Y-32119047D01*
X47456190Y-32000000D01*
X47480000Y-31928571D01*
X47956190Y-31714285D02*
X47456190Y-31714285D01*
X73356190Y-24792857D02*
X73356190Y-25030952D01*
X72856190Y-25030952D01*
X73356190Y-24626190D02*
X72856190Y-24626190D01*
X72856190Y-24507142D01*
X72880000Y-24435714D01*
X72927619Y-24388095D01*
X72975238Y-24364285D01*
X73070476Y-24340476D01*
X73141904Y-24340476D01*
X73237142Y-24364285D01*
X73284761Y-24388095D01*
X73332380Y-24435714D01*
X73356190Y-24507142D01*
X73356190Y-24626190D01*
X73356190Y-24126190D02*
X72856190Y-24126190D01*
X73094285Y-23721428D02*
X73118095Y-23650000D01*
X73141904Y-23626190D01*
X73189523Y-23602380D01*
X73260952Y-23602380D01*
X73308571Y-23626190D01*
X73332380Y-23650000D01*
X73356190Y-23697619D01*
X73356190Y-23888095D01*
X72856190Y-23888095D01*
X72856190Y-23721428D01*
X72880000Y-23673809D01*
X72903809Y-23650000D01*
X72951428Y-23626190D01*
X72999047Y-23626190D01*
X73046666Y-23650000D01*
X73070476Y-23673809D01*
X73094285Y-23721428D01*
X73094285Y-23888095D01*
X73356190Y-23150000D02*
X73356190Y-23388095D01*
X72856190Y-23388095D01*
X73213333Y-23007142D02*
X73213333Y-22769047D01*
X73356190Y-23054761D02*
X72856190Y-22888095D01*
X73356190Y-22721428D01*
X73356190Y-22554761D02*
X72856190Y-22554761D01*
X73356190Y-22269047D01*
X72856190Y-22269047D01*
X73356190Y-22030952D02*
X72856190Y-22030952D01*
X73356190Y-21745238D02*
X73070476Y-21959523D01*
X72856190Y-21745238D02*
X73141904Y-22030952D01*
D10*
X24764166Y-18960714D02*
X24764166Y-19627380D01*
X24526071Y-18579761D02*
X24287976Y-19294047D01*
X24907023Y-19294047D01*
X25430833Y-19055952D02*
X25335595Y-19008333D01*
X25287976Y-18960714D01*
X25240357Y-18865476D01*
X25240357Y-18817857D01*
X25287976Y-18722619D01*
X25335595Y-18675000D01*
X25430833Y-18627380D01*
X25621309Y-18627380D01*
X25716547Y-18675000D01*
X25764166Y-18722619D01*
X25811785Y-18817857D01*
X25811785Y-18865476D01*
X25764166Y-18960714D01*
X25716547Y-19008333D01*
X25621309Y-19055952D01*
X25430833Y-19055952D01*
X25335595Y-19103571D01*
X25287976Y-19151190D01*
X25240357Y-19246428D01*
X25240357Y-19436904D01*
X25287976Y-19532142D01*
X25335595Y-19579761D01*
X25430833Y-19627380D01*
X25621309Y-19627380D01*
X25716547Y-19579761D01*
X25764166Y-19532142D01*
X25811785Y-19436904D01*
X25811785Y-19246428D01*
X25764166Y-19151190D01*
X25716547Y-19103571D01*
X25621309Y-19055952D01*
X26240357Y-19246428D02*
X27002261Y-19246428D01*
X28049880Y-19532142D02*
X28002261Y-19579761D01*
X27859404Y-19627380D01*
X27764166Y-19627380D01*
X27621309Y-19579761D01*
X27526071Y-19484523D01*
X27478452Y-19389285D01*
X27430833Y-19198809D01*
X27430833Y-19055952D01*
X27478452Y-18865476D01*
X27526071Y-18770238D01*
X27621309Y-18675000D01*
X27764166Y-18627380D01*
X27859404Y-18627380D01*
X28002261Y-18675000D01*
X28049880Y-18722619D01*
X28478452Y-19627380D02*
X28478452Y-18627380D01*
X28907023Y-19627380D02*
X28907023Y-19103571D01*
X28859404Y-19008333D01*
X28764166Y-18960714D01*
X28621309Y-18960714D01*
X28526071Y-19008333D01*
X28478452Y-19055952D01*
X29811785Y-19627380D02*
X29811785Y-19103571D01*
X29764166Y-19008333D01*
X29668928Y-18960714D01*
X29478452Y-18960714D01*
X29383214Y-19008333D01*
X29811785Y-19579761D02*
X29716547Y-19627380D01*
X29478452Y-19627380D01*
X29383214Y-19579761D01*
X29335595Y-19484523D01*
X29335595Y-19389285D01*
X29383214Y-19294047D01*
X29478452Y-19246428D01*
X29716547Y-19246428D01*
X29811785Y-19198809D01*
X30287976Y-18960714D02*
X30287976Y-19627380D01*
X30287976Y-19055952D02*
X30335595Y-19008333D01*
X30430833Y-18960714D01*
X30573690Y-18960714D01*
X30668928Y-19008333D01*
X30716547Y-19103571D01*
X30716547Y-19627380D01*
X31192738Y-18960714D02*
X31192738Y-19627380D01*
X31192738Y-19055952D02*
X31240357Y-19008333D01*
X31335595Y-18960714D01*
X31478452Y-18960714D01*
X31573690Y-19008333D01*
X31621309Y-19103571D01*
X31621309Y-19627380D01*
X32478452Y-19579761D02*
X32383214Y-19627380D01*
X32192738Y-19627380D01*
X32097500Y-19579761D01*
X32049880Y-19484523D01*
X32049880Y-19103571D01*
X32097500Y-19008333D01*
X32192738Y-18960714D01*
X32383214Y-18960714D01*
X32478452Y-19008333D01*
X32526071Y-19103571D01*
X32526071Y-19198809D01*
X32049880Y-19294047D01*
X33097500Y-19627380D02*
X33002261Y-19579761D01*
X32954642Y-19484523D01*
X32954642Y-18627380D01*
X34240357Y-19627380D02*
X34240357Y-18627380D01*
X34621309Y-18627380D01*
X34716547Y-18675000D01*
X34764166Y-18722619D01*
X34811785Y-18817857D01*
X34811785Y-18960714D01*
X34764166Y-19055952D01*
X34716547Y-19103571D01*
X34621309Y-19151190D01*
X34240357Y-19151190D01*
X35145119Y-18627380D02*
X35383214Y-19627380D01*
X35573690Y-18913095D01*
X35764166Y-19627380D01*
X36002261Y-18627380D01*
X36383214Y-19627380D02*
X36383214Y-18627380D01*
X36716547Y-19341666D01*
X37049880Y-18627380D01*
X37049880Y-19627380D01*
X38621309Y-19103571D02*
X38764166Y-19151190D01*
X38811785Y-19198809D01*
X38859404Y-19294047D01*
X38859404Y-19436904D01*
X38811785Y-19532142D01*
X38764166Y-19579761D01*
X38668928Y-19627380D01*
X38287976Y-19627380D01*
X38287976Y-18627380D01*
X38621309Y-18627380D01*
X38716547Y-18675000D01*
X38764166Y-18722619D01*
X38811785Y-18817857D01*
X38811785Y-18913095D01*
X38764166Y-19008333D01*
X38716547Y-19055952D01*
X38621309Y-19103571D01*
X38287976Y-19103571D01*
X39430833Y-19627380D02*
X39335595Y-19579761D01*
X39287976Y-19532142D01*
X39240357Y-19436904D01*
X39240357Y-19151190D01*
X39287976Y-19055952D01*
X39335595Y-19008333D01*
X39430833Y-18960714D01*
X39573690Y-18960714D01*
X39668928Y-19008333D01*
X39716547Y-19055952D01*
X39764166Y-19151190D01*
X39764166Y-19436904D01*
X39716547Y-19532142D01*
X39668928Y-19579761D01*
X39573690Y-19627380D01*
X39430833Y-19627380D01*
X40621309Y-19627380D02*
X40621309Y-19103571D01*
X40573690Y-19008333D01*
X40478452Y-18960714D01*
X40287976Y-18960714D01*
X40192738Y-19008333D01*
X40621309Y-19579761D02*
X40526071Y-19627380D01*
X40287976Y-19627380D01*
X40192738Y-19579761D01*
X40145119Y-19484523D01*
X40145119Y-19389285D01*
X40192738Y-19294047D01*
X40287976Y-19246428D01*
X40526071Y-19246428D01*
X40621309Y-19198809D01*
X41097500Y-19627380D02*
X41097500Y-18960714D01*
X41097500Y-19151190D02*
X41145119Y-19055952D01*
X41192738Y-19008333D01*
X41287976Y-18960714D01*
X41383214Y-18960714D01*
X42145119Y-19627380D02*
X42145119Y-18627380D01*
X42145119Y-19579761D02*
X42049880Y-19627380D01*
X41859404Y-19627380D01*
X41764166Y-19579761D01*
X41716547Y-19532142D01*
X41668928Y-19436904D01*
X41668928Y-19151190D01*
X41716547Y-19055952D01*
X41764166Y-19008333D01*
X41859404Y-18960714D01*
X42049880Y-18960714D01*
X42145119Y-19008333D01*
X43287976Y-18960714D02*
X43526071Y-19627380D01*
X43764166Y-18960714D01*
X44097500Y-18722619D02*
X44145119Y-18675000D01*
X44240357Y-18627380D01*
X44478452Y-18627380D01*
X44573690Y-18675000D01*
X44621309Y-18722619D01*
X44668928Y-18817857D01*
X44668928Y-18913095D01*
X44621309Y-19055952D01*
X44049880Y-19627380D01*
X44668928Y-19627380D01*
X45097500Y-19532142D02*
X45145119Y-19579761D01*
X45097500Y-19627380D01*
X45049880Y-19579761D01*
X45097500Y-19532142D01*
X45097500Y-19627380D01*
X45764166Y-18627380D02*
X45859404Y-18627380D01*
X45954642Y-18675000D01*
X46002261Y-18722619D01*
X46049880Y-18817857D01*
X46097500Y-19008333D01*
X46097500Y-19246428D01*
X46049880Y-19436904D01*
X46002261Y-19532142D01*
X45954642Y-19579761D01*
X45859404Y-19627380D01*
X45764166Y-19627380D01*
X45668928Y-19579761D01*
X45621309Y-19532142D01*
X45573690Y-19436904D01*
X45526071Y-19246428D01*
X45526071Y-19008333D01*
X45573690Y-18817857D01*
X45621309Y-18722619D01*
X45668928Y-18675000D01*
X45764166Y-18627380D01*
X47573690Y-20008333D02*
X47526071Y-19960714D01*
X47430833Y-19817857D01*
X47383214Y-19722619D01*
X47335595Y-19579761D01*
X47287976Y-19341666D01*
X47287976Y-19151190D01*
X47335595Y-18913095D01*
X47383214Y-18770238D01*
X47430833Y-18675000D01*
X47526071Y-18532142D01*
X47573690Y-18484523D01*
X47859404Y-18960714D02*
X48049880Y-19627380D01*
X48240357Y-19151190D01*
X48430833Y-19627380D01*
X48621309Y-18960714D01*
X49002261Y-19627380D02*
X49002261Y-18960714D01*
X49002261Y-18627380D02*
X48954642Y-18675000D01*
X49002261Y-18722619D01*
X49049880Y-18675000D01*
X49002261Y-18627380D01*
X49002261Y-18722619D01*
X49335595Y-18960714D02*
X49716547Y-18960714D01*
X49478452Y-18627380D02*
X49478452Y-19484523D01*
X49526071Y-19579761D01*
X49621309Y-19627380D01*
X49716547Y-19627380D01*
X50049880Y-19627380D02*
X50049880Y-18627380D01*
X50478452Y-19627380D02*
X50478452Y-19103571D01*
X50430833Y-19008333D01*
X50335595Y-18960714D01*
X50192738Y-18960714D01*
X50097500Y-19008333D01*
X50049880Y-19055952D01*
X51668928Y-19579761D02*
X51811785Y-19627380D01*
X52049880Y-19627380D01*
X52145119Y-19579761D01*
X52192738Y-19532142D01*
X52240357Y-19436904D01*
X52240357Y-19341666D01*
X52192738Y-19246428D01*
X52145119Y-19198809D01*
X52049880Y-19151190D01*
X51859404Y-19103571D01*
X51764166Y-19055952D01*
X51716547Y-19008333D01*
X51668928Y-18913095D01*
X51668928Y-18817857D01*
X51716547Y-18722619D01*
X51764166Y-18675000D01*
X51859404Y-18627380D01*
X52097500Y-18627380D01*
X52240357Y-18675000D01*
X52668928Y-19627380D02*
X52668928Y-18627380D01*
X53049880Y-18627380D01*
X53145119Y-18675000D01*
X53192738Y-18722619D01*
X53240357Y-18817857D01*
X53240357Y-18960714D01*
X53192738Y-19055952D01*
X53145119Y-19103571D01*
X53049880Y-19151190D01*
X52668928Y-19151190D01*
X53668928Y-19627380D02*
X53668928Y-18627380D01*
X54049880Y-20008333D02*
X54097500Y-19960714D01*
X54192738Y-19817857D01*
X54240357Y-19722619D01*
X54287976Y-19579761D01*
X54335595Y-19341666D01*
X54335595Y-19151190D01*
X54287976Y-18913095D01*
X54240357Y-18770238D01*
X54192738Y-18675000D01*
X54097500Y-18532142D01*
X54049880Y-18484523D01*
X24335595Y-21277380D02*
X24335595Y-20277380D01*
X24573690Y-20277380D01*
X24716547Y-20325000D01*
X24811785Y-20420238D01*
X24859404Y-20515476D01*
X24907023Y-20705952D01*
X24907023Y-20848809D01*
X24859404Y-21039285D01*
X24811785Y-21134523D01*
X24716547Y-21229761D01*
X24573690Y-21277380D01*
X24335595Y-21277380D01*
X25716547Y-21229761D02*
X25621309Y-21277380D01*
X25430833Y-21277380D01*
X25335595Y-21229761D01*
X25287976Y-21134523D01*
X25287976Y-20753571D01*
X25335595Y-20658333D01*
X25430833Y-20610714D01*
X25621309Y-20610714D01*
X25716547Y-20658333D01*
X25764166Y-20753571D01*
X25764166Y-20848809D01*
X25287976Y-20944047D01*
X26145119Y-21229761D02*
X26240357Y-21277380D01*
X26430833Y-21277380D01*
X26526071Y-21229761D01*
X26573690Y-21134523D01*
X26573690Y-21086904D01*
X26526071Y-20991666D01*
X26430833Y-20944047D01*
X26287976Y-20944047D01*
X26192738Y-20896428D01*
X26145119Y-20801190D01*
X26145119Y-20753571D01*
X26192738Y-20658333D01*
X26287976Y-20610714D01*
X26430833Y-20610714D01*
X26526071Y-20658333D01*
X27002261Y-21277380D02*
X27002261Y-20610714D01*
X27002261Y-20277380D02*
X26954642Y-20325000D01*
X27002261Y-20372619D01*
X27049880Y-20325000D01*
X27002261Y-20277380D01*
X27002261Y-20372619D01*
X27907023Y-20610714D02*
X27907023Y-21420238D01*
X27859404Y-21515476D01*
X27811785Y-21563095D01*
X27716547Y-21610714D01*
X27573690Y-21610714D01*
X27478452Y-21563095D01*
X27907023Y-21229761D02*
X27811785Y-21277380D01*
X27621309Y-21277380D01*
X27526071Y-21229761D01*
X27478452Y-21182142D01*
X27430833Y-21086904D01*
X27430833Y-20801190D01*
X27478452Y-20705952D01*
X27526071Y-20658333D01*
X27621309Y-20610714D01*
X27811785Y-20610714D01*
X27907023Y-20658333D01*
X28383214Y-20610714D02*
X28383214Y-21277380D01*
X28383214Y-20705952D02*
X28430833Y-20658333D01*
X28526071Y-20610714D01*
X28668928Y-20610714D01*
X28764166Y-20658333D01*
X28811785Y-20753571D01*
X28811785Y-21277380D01*
X29668928Y-21229761D02*
X29573690Y-21277380D01*
X29383214Y-21277380D01*
X29287976Y-21229761D01*
X29240357Y-21134523D01*
X29240357Y-20753571D01*
X29287976Y-20658333D01*
X29383214Y-20610714D01*
X29573690Y-20610714D01*
X29668928Y-20658333D01*
X29716547Y-20753571D01*
X29716547Y-20848809D01*
X29240357Y-20944047D01*
X30573690Y-21277380D02*
X30573690Y-20277380D01*
X30573690Y-21229761D02*
X30478452Y-21277380D01*
X30287976Y-21277380D01*
X30192738Y-21229761D01*
X30145119Y-21182142D01*
X30097500Y-21086904D01*
X30097500Y-20801190D01*
X30145119Y-20705952D01*
X30192738Y-20658333D01*
X30287976Y-20610714D01*
X30478452Y-20610714D01*
X30573690Y-20658333D01*
X31811785Y-21277380D02*
X31811785Y-20277380D01*
X31811785Y-20658333D02*
X31907023Y-20610714D01*
X32097500Y-20610714D01*
X32192738Y-20658333D01*
X32240357Y-20705952D01*
X32287976Y-20801190D01*
X32287976Y-21086904D01*
X32240357Y-21182142D01*
X32192738Y-21229761D01*
X32097500Y-21277380D01*
X31907023Y-21277380D01*
X31811785Y-21229761D01*
X32621309Y-20610714D02*
X32859404Y-21277380D01*
X33097500Y-20610714D02*
X32859404Y-21277380D01*
X32764166Y-21515476D01*
X32716547Y-21563095D01*
X32621309Y-21610714D01*
X34716547Y-21277380D02*
X34240357Y-21277380D01*
X34240357Y-20277380D01*
X35049880Y-21277380D02*
X35049880Y-20610714D01*
X35049880Y-20277380D02*
X35002261Y-20325000D01*
X35049880Y-20372619D01*
X35097500Y-20325000D01*
X35049880Y-20277380D01*
X35049880Y-20372619D01*
X35526071Y-20610714D02*
X35526071Y-21277380D01*
X35526071Y-20705952D02*
X35573690Y-20658333D01*
X35668928Y-20610714D01*
X35811785Y-20610714D01*
X35907023Y-20658333D01*
X35954642Y-20753571D01*
X35954642Y-21277380D01*
X36430833Y-21277380D02*
X36430833Y-20277380D01*
X36526071Y-20896428D02*
X36811785Y-21277380D01*
X36811785Y-20610714D02*
X36430833Y-20991666D01*
X37668928Y-20610714D02*
X37668928Y-21277380D01*
X37240357Y-20610714D02*
X37240357Y-21134523D01*
X37287976Y-21229761D01*
X37383214Y-21277380D01*
X37526071Y-21277380D01*
X37621309Y-21229761D01*
X37668928Y-21182142D01*
X38145119Y-20610714D02*
X38145119Y-21277380D01*
X38145119Y-20705952D02*
X38192738Y-20658333D01*
X38287976Y-20610714D01*
X38430833Y-20610714D01*
X38526071Y-20658333D01*
X38573690Y-20753571D01*
X38573690Y-21277380D01*
X40335595Y-20325000D02*
X40240357Y-20277380D01*
X40097500Y-20277380D01*
X39954642Y-20325000D01*
X39859404Y-20420238D01*
X39811785Y-20515476D01*
X39764166Y-20705952D01*
X39764166Y-20848809D01*
X39811785Y-21039285D01*
X39859404Y-21134523D01*
X39954642Y-21229761D01*
X40097500Y-21277380D01*
X40192738Y-21277380D01*
X40335595Y-21229761D01*
X40383214Y-21182142D01*
X40383214Y-20848809D01*
X40192738Y-20848809D01*
X40764166Y-20991666D02*
X41240357Y-20991666D01*
X40668928Y-21277380D02*
X41002261Y-20277380D01*
X41335595Y-21277380D01*
X41859404Y-20277380D02*
X42049880Y-20277380D01*
X42145119Y-20325000D01*
X42240357Y-20420238D01*
X42287976Y-20610714D01*
X42287976Y-20944047D01*
X42240357Y-21134523D01*
X42145119Y-21229761D01*
X42049880Y-21277380D01*
X41859404Y-21277380D01*
X41764166Y-21229761D01*
X41668928Y-21134523D01*
X41621309Y-20944047D01*
X41621309Y-20610714D01*
X41668928Y-20420238D01*
X41764166Y-20325000D01*
X41859404Y-20277380D01*
X146380952Y-40952380D02*
X145809523Y-40952380D01*
X146095238Y-40952380D02*
X146095238Y-39952380D01*
X146000000Y-40095238D01*
X145904761Y-40190476D01*
X145809523Y-40238095D01*
X146761904Y-40047619D02*
X146809523Y-40000000D01*
X146904761Y-39952380D01*
X147142857Y-39952380D01*
X147238095Y-40000000D01*
X147285714Y-40047619D01*
X147333333Y-40142857D01*
X147333333Y-40238095D01*
X147285714Y-40380952D01*
X146714285Y-40952380D01*
X147333333Y-40952380D01*
X147619047Y-39952380D02*
X147952380Y-40952380D01*
X148285714Y-39952380D01*
X149523809Y-39952380D02*
X150142857Y-39952380D01*
X149809523Y-40333333D01*
X149952380Y-40333333D01*
X150047619Y-40380952D01*
X150095238Y-40428571D01*
X150142857Y-40523809D01*
X150142857Y-40761904D01*
X150095238Y-40857142D01*
X150047619Y-40904761D01*
X149952380Y-40952380D01*
X149666666Y-40952380D01*
X149571428Y-40904761D01*
X149523809Y-40857142D01*
X150571428Y-40857142D02*
X150619047Y-40904761D01*
X150571428Y-40952380D01*
X150523809Y-40904761D01*
X150571428Y-40857142D01*
X150571428Y-40952380D01*
X150952380Y-39952380D02*
X151571428Y-39952380D01*
X151238095Y-40333333D01*
X151380952Y-40333333D01*
X151476190Y-40380952D01*
X151523809Y-40428571D01*
X151571428Y-40523809D01*
X151571428Y-40761904D01*
X151523809Y-40857142D01*
X151476190Y-40904761D01*
X151380952Y-40952380D01*
X151095238Y-40952380D01*
X151000000Y-40904761D01*
X150952380Y-40857142D01*
X151857142Y-39952380D02*
X152190476Y-40952380D01*
X152523809Y-39952380D01*
X112785714Y-50452380D02*
X112785714Y-49452380D01*
X113023809Y-49452380D01*
X113166666Y-49500000D01*
X113261904Y-49595238D01*
X113309523Y-49690476D01*
X113357142Y-49880952D01*
X113357142Y-50023809D01*
X113309523Y-50214285D01*
X113261904Y-50309523D01*
X113166666Y-50404761D01*
X113023809Y-50452380D01*
X112785714Y-50452380D01*
X114214285Y-49785714D02*
X114214285Y-50452380D01*
X113976190Y-49404761D02*
X113738095Y-50119047D01*
X114357142Y-50119047D01*
X114642857Y-49452380D02*
X115309523Y-49452380D01*
X114880952Y-50452380D01*
X112785714Y-93952380D02*
X112785714Y-92952380D01*
X113023809Y-92952380D01*
X113166666Y-93000000D01*
X113261904Y-93095238D01*
X113309523Y-93190476D01*
X113357142Y-93380952D01*
X113357142Y-93523809D01*
X113309523Y-93714285D01*
X113261904Y-93809523D01*
X113166666Y-93904761D01*
X113023809Y-93952380D01*
X112785714Y-93952380D01*
X113690476Y-92952380D02*
X114309523Y-92952380D01*
X113976190Y-93333333D01*
X114119047Y-93333333D01*
X114214285Y-93380952D01*
X114261904Y-93428571D01*
X114309523Y-93523809D01*
X114309523Y-93761904D01*
X114261904Y-93857142D01*
X114214285Y-93904761D01*
X114119047Y-93952380D01*
X113833333Y-93952380D01*
X113738095Y-93904761D01*
X113690476Y-93857142D01*
X114690476Y-93047619D02*
X114738095Y-93000000D01*
X114833333Y-92952380D01*
X115071428Y-92952380D01*
X115166666Y-93000000D01*
X115214285Y-93047619D01*
X115261904Y-93142857D01*
X115261904Y-93238095D01*
X115214285Y-93380952D01*
X114642857Y-93952380D01*
X115261904Y-93952380D01*
X110340952Y-50452380D02*
X109769523Y-50452380D01*
X110055238Y-50452380D02*
X110055238Y-49452380D01*
X109960000Y-49595238D01*
X109864761Y-49690476D01*
X109769523Y-49738095D01*
X110721904Y-49547619D02*
X110769523Y-49500000D01*
X110864761Y-49452380D01*
X111102857Y-49452380D01*
X111198095Y-49500000D01*
X111245714Y-49547619D01*
X111293333Y-49642857D01*
X111293333Y-49738095D01*
X111245714Y-49880952D01*
X110674285Y-50452380D01*
X111293333Y-50452380D01*
X111579047Y-49452380D02*
X111912380Y-50452380D01*
X112245714Y-49452380D01*
X72785714Y-50452380D02*
X72785714Y-49452380D01*
X73023809Y-49452380D01*
X73166666Y-49500000D01*
X73261904Y-49595238D01*
X73309523Y-49690476D01*
X73357142Y-49880952D01*
X73357142Y-50023809D01*
X73309523Y-50214285D01*
X73261904Y-50309523D01*
X73166666Y-50404761D01*
X73023809Y-50452380D01*
X72785714Y-50452380D01*
X73690476Y-49452380D02*
X74309523Y-49452380D01*
X73976190Y-49833333D01*
X74119047Y-49833333D01*
X74214285Y-49880952D01*
X74261904Y-49928571D01*
X74309523Y-50023809D01*
X74309523Y-50261904D01*
X74261904Y-50357142D01*
X74214285Y-50404761D01*
X74119047Y-50452380D01*
X73833333Y-50452380D01*
X73738095Y-50404761D01*
X73690476Y-50357142D01*
X75261904Y-50452380D02*
X74690476Y-50452380D01*
X74976190Y-50452380D02*
X74976190Y-49452380D01*
X74880952Y-49595238D01*
X74785714Y-49690476D01*
X74690476Y-49738095D01*
X72785714Y-93952380D02*
X72785714Y-92952380D01*
X73023809Y-92952380D01*
X73166666Y-93000000D01*
X73261904Y-93095238D01*
X73309523Y-93190476D01*
X73357142Y-93380952D01*
X73357142Y-93523809D01*
X73309523Y-93714285D01*
X73261904Y-93809523D01*
X73166666Y-93904761D01*
X73023809Y-93952380D01*
X72785714Y-93952380D01*
X74309523Y-93952380D02*
X73738095Y-93952380D01*
X74023809Y-93952380D02*
X74023809Y-92952380D01*
X73928571Y-93095238D01*
X73833333Y-93190476D01*
X73738095Y-93238095D01*
X75166666Y-92952380D02*
X74976190Y-92952380D01*
X74880952Y-93000000D01*
X74833333Y-93047619D01*
X74738095Y-93190476D01*
X74690476Y-93380952D01*
X74690476Y-93761904D01*
X74738095Y-93857142D01*
X74785714Y-93904761D01*
X74880952Y-93952380D01*
X75071428Y-93952380D01*
X75166666Y-93904761D01*
X75214285Y-93857142D01*
X75261904Y-93761904D01*
X75261904Y-93523809D01*
X75214285Y-93428571D01*
X75166666Y-93380952D01*
X75071428Y-93333333D01*
X74880952Y-93333333D01*
X74785714Y-93380952D01*
X74738095Y-93428571D01*
X74690476Y-93523809D01*
X70340952Y-50452380D02*
X69769523Y-50452380D01*
X70055238Y-50452380D02*
X70055238Y-49452380D01*
X69960000Y-49595238D01*
X69864761Y-49690476D01*
X69769523Y-49738095D01*
X70721904Y-49547619D02*
X70769523Y-49500000D01*
X70864761Y-49452380D01*
X71102857Y-49452380D01*
X71198095Y-49500000D01*
X71245714Y-49547619D01*
X71293333Y-49642857D01*
X71293333Y-49738095D01*
X71245714Y-49880952D01*
X70674285Y-50452380D01*
X71293333Y-50452380D01*
X71579047Y-49452380D02*
X71912380Y-50452380D01*
X72245714Y-49452380D01*
X32785714Y-50452380D02*
X32785714Y-49452380D01*
X33023809Y-49452380D01*
X33166666Y-49500000D01*
X33261904Y-49595238D01*
X33309523Y-49690476D01*
X33357142Y-49880952D01*
X33357142Y-50023809D01*
X33309523Y-50214285D01*
X33261904Y-50309523D01*
X33166666Y-50404761D01*
X33023809Y-50452380D01*
X32785714Y-50452380D01*
X34309523Y-50452380D02*
X33738095Y-50452380D01*
X34023809Y-50452380D02*
X34023809Y-49452380D01*
X33928571Y-49595238D01*
X33833333Y-49690476D01*
X33738095Y-49738095D01*
X35214285Y-49452380D02*
X34738095Y-49452380D01*
X34690476Y-49928571D01*
X34738095Y-49880952D01*
X34833333Y-49833333D01*
X35071428Y-49833333D01*
X35166666Y-49880952D01*
X35214285Y-49928571D01*
X35261904Y-50023809D01*
X35261904Y-50261904D01*
X35214285Y-50357142D01*
X35166666Y-50404761D01*
X35071428Y-50452380D01*
X34833333Y-50452380D01*
X34738095Y-50404761D01*
X34690476Y-50357142D01*
X33261904Y-93952380D02*
X33261904Y-92952380D01*
X33500000Y-92952380D01*
X33642857Y-93000000D01*
X33738095Y-93095238D01*
X33785714Y-93190476D01*
X33833333Y-93380952D01*
X33833333Y-93523809D01*
X33785714Y-93714285D01*
X33738095Y-93809523D01*
X33642857Y-93904761D01*
X33500000Y-93952380D01*
X33261904Y-93952380D01*
X34452380Y-92952380D02*
X34547619Y-92952380D01*
X34642857Y-93000000D01*
X34690476Y-93047619D01*
X34738095Y-93142857D01*
X34785714Y-93333333D01*
X34785714Y-93571428D01*
X34738095Y-93761904D01*
X34690476Y-93857142D01*
X34642857Y-93904761D01*
X34547619Y-93952380D01*
X34452380Y-93952380D01*
X34357142Y-93904761D01*
X34309523Y-93857142D01*
X34261904Y-93761904D01*
X34214285Y-93571428D01*
X34214285Y-93333333D01*
X34261904Y-93142857D01*
X34309523Y-93047619D01*
X34357142Y-93000000D01*
X34452380Y-92952380D01*
X30340952Y-50452380D02*
X29769523Y-50452380D01*
X30055238Y-50452380D02*
X30055238Y-49452380D01*
X29960000Y-49595238D01*
X29864761Y-49690476D01*
X29769523Y-49738095D01*
X30721904Y-49547619D02*
X30769523Y-49500000D01*
X30864761Y-49452380D01*
X31102857Y-49452380D01*
X31198095Y-49500000D01*
X31245714Y-49547619D01*
X31293333Y-49642857D01*
X31293333Y-49738095D01*
X31245714Y-49880952D01*
X30674285Y-50452380D01*
X31293333Y-50452380D01*
X31579047Y-49452380D02*
X31912380Y-50452380D01*
X32245714Y-49452380D01*
D11*
%TO.C,Y1*%
X50100000Y-37000000D02*
X52900000Y-37000000D01*
X50100000Y-42000000D02*
X52900000Y-42000000D01*
X48000000Y-38900000D02*
X48000000Y-40100000D01*
X55000000Y-38900000D02*
X55000000Y-40100000D01*
D12*
%TO.C,C1*%
X57320000Y-40124721D02*
X57320000Y-40450279D01*
X58340000Y-40124721D02*
X58340000Y-40450279D01*
%TO.C,C3*%
X72607936Y-33430000D02*
X73812064Y-33430000D01*
X72607936Y-35250000D02*
X73812064Y-35250000D01*
%TO.C,C5*%
X115980000Y-98000000D02*
G75*
G03*
X115980000Y-98000000I-3270000J0D01*
G01*
X112710000Y-94770000D02*
X112710000Y-101230000D01*
X112750000Y-94770000D02*
X112750000Y-101230000D01*
X112790000Y-94770000D02*
X112790000Y-101230000D01*
X112830000Y-94772000D02*
X112830000Y-101228000D01*
X112870000Y-94773000D02*
X112870000Y-101227000D01*
X112910000Y-94776000D02*
X112910000Y-101224000D01*
X112950000Y-94778000D02*
X112950000Y-96960000D01*
X112950000Y-99040000D02*
X112950000Y-101222000D01*
X112990000Y-94782000D02*
X112990000Y-96960000D01*
X112990000Y-99040000D02*
X112990000Y-101218000D01*
X113030000Y-94785000D02*
X113030000Y-96960000D01*
X113030000Y-99040000D02*
X113030000Y-101215000D01*
X113070000Y-94789000D02*
X113070000Y-96960000D01*
X113070000Y-99040000D02*
X113070000Y-101211000D01*
X113110000Y-94794000D02*
X113110000Y-96960000D01*
X113110000Y-99040000D02*
X113110000Y-101206000D01*
X113150000Y-94799000D02*
X113150000Y-96960000D01*
X113150000Y-99040000D02*
X113150000Y-101201000D01*
X113190000Y-94805000D02*
X113190000Y-96960000D01*
X113190000Y-99040000D02*
X113190000Y-101195000D01*
X113230000Y-94811000D02*
X113230000Y-96960000D01*
X113230000Y-99040000D02*
X113230000Y-101189000D01*
X113270000Y-94818000D02*
X113270000Y-96960000D01*
X113270000Y-99040000D02*
X113270000Y-101182000D01*
X113310000Y-94825000D02*
X113310000Y-96960000D01*
X113310000Y-99040000D02*
X113310000Y-101175000D01*
X113350000Y-94833000D02*
X113350000Y-96960000D01*
X113350000Y-99040000D02*
X113350000Y-101167000D01*
X113390000Y-94841000D02*
X113390000Y-96960000D01*
X113390000Y-99040000D02*
X113390000Y-101159000D01*
X113431000Y-94850000D02*
X113431000Y-96960000D01*
X113431000Y-99040000D02*
X113431000Y-101150000D01*
X113471000Y-94859000D02*
X113471000Y-96960000D01*
X113471000Y-99040000D02*
X113471000Y-101141000D01*
X113511000Y-94869000D02*
X113511000Y-96960000D01*
X113511000Y-99040000D02*
X113511000Y-101131000D01*
X113551000Y-94879000D02*
X113551000Y-96960000D01*
X113551000Y-99040000D02*
X113551000Y-101121000D01*
X113591000Y-94890000D02*
X113591000Y-96960000D01*
X113591000Y-99040000D02*
X113591000Y-101110000D01*
X113631000Y-94902000D02*
X113631000Y-96960000D01*
X113631000Y-99040000D02*
X113631000Y-101098000D01*
X113671000Y-94914000D02*
X113671000Y-96960000D01*
X113671000Y-99040000D02*
X113671000Y-101086000D01*
X113711000Y-94926000D02*
X113711000Y-96960000D01*
X113711000Y-99040000D02*
X113711000Y-101074000D01*
X113751000Y-94939000D02*
X113751000Y-96960000D01*
X113751000Y-99040000D02*
X113751000Y-101061000D01*
X113791000Y-94953000D02*
X113791000Y-96960000D01*
X113791000Y-99040000D02*
X113791000Y-101047000D01*
X113831000Y-94967000D02*
X113831000Y-96960000D01*
X113831000Y-99040000D02*
X113831000Y-101033000D01*
X113871000Y-94982000D02*
X113871000Y-96960000D01*
X113871000Y-99040000D02*
X113871000Y-101018000D01*
X113911000Y-94998000D02*
X113911000Y-96960000D01*
X113911000Y-99040000D02*
X113911000Y-101002000D01*
X113951000Y-95014000D02*
X113951000Y-96960000D01*
X113951000Y-99040000D02*
X113951000Y-100986000D01*
X113991000Y-95030000D02*
X113991000Y-96960000D01*
X113991000Y-99040000D02*
X113991000Y-100970000D01*
X114031000Y-95048000D02*
X114031000Y-96960000D01*
X114031000Y-99040000D02*
X114031000Y-100952000D01*
X114071000Y-95066000D02*
X114071000Y-96960000D01*
X114071000Y-99040000D02*
X114071000Y-100934000D01*
X114111000Y-95084000D02*
X114111000Y-96960000D01*
X114111000Y-99040000D02*
X114111000Y-100916000D01*
X114151000Y-95104000D02*
X114151000Y-96960000D01*
X114151000Y-99040000D02*
X114151000Y-100896000D01*
X114191000Y-95124000D02*
X114191000Y-96960000D01*
X114191000Y-99040000D02*
X114191000Y-100876000D01*
X114231000Y-95144000D02*
X114231000Y-96960000D01*
X114231000Y-99040000D02*
X114231000Y-100856000D01*
X114271000Y-95166000D02*
X114271000Y-96960000D01*
X114271000Y-99040000D02*
X114271000Y-100834000D01*
X114311000Y-95188000D02*
X114311000Y-96960000D01*
X114311000Y-99040000D02*
X114311000Y-100812000D01*
X114351000Y-95210000D02*
X114351000Y-96960000D01*
X114351000Y-99040000D02*
X114351000Y-100790000D01*
X114391000Y-95234000D02*
X114391000Y-96960000D01*
X114391000Y-99040000D02*
X114391000Y-100766000D01*
X114431000Y-95258000D02*
X114431000Y-96960000D01*
X114431000Y-99040000D02*
X114431000Y-100742000D01*
X114471000Y-95284000D02*
X114471000Y-96960000D01*
X114471000Y-99040000D02*
X114471000Y-100716000D01*
X114511000Y-95310000D02*
X114511000Y-96960000D01*
X114511000Y-99040000D02*
X114511000Y-100690000D01*
X114551000Y-95336000D02*
X114551000Y-96960000D01*
X114551000Y-99040000D02*
X114551000Y-100664000D01*
X114591000Y-95364000D02*
X114591000Y-96960000D01*
X114591000Y-99040000D02*
X114591000Y-100636000D01*
X114631000Y-95393000D02*
X114631000Y-96960000D01*
X114631000Y-99040000D02*
X114631000Y-100607000D01*
X114671000Y-95422000D02*
X114671000Y-96960000D01*
X114671000Y-99040000D02*
X114671000Y-100578000D01*
X114711000Y-95452000D02*
X114711000Y-96960000D01*
X114711000Y-99040000D02*
X114711000Y-100548000D01*
X114751000Y-95484000D02*
X114751000Y-96960000D01*
X114751000Y-99040000D02*
X114751000Y-100516000D01*
X114791000Y-95516000D02*
X114791000Y-96960000D01*
X114791000Y-99040000D02*
X114791000Y-100484000D01*
X114831000Y-95550000D02*
X114831000Y-96960000D01*
X114831000Y-99040000D02*
X114831000Y-100450000D01*
X114871000Y-95584000D02*
X114871000Y-96960000D01*
X114871000Y-99040000D02*
X114871000Y-100416000D01*
X114911000Y-95620000D02*
X114911000Y-96960000D01*
X114911000Y-99040000D02*
X114911000Y-100380000D01*
X114951000Y-95657000D02*
X114951000Y-96960000D01*
X114951000Y-99040000D02*
X114951000Y-100343000D01*
X114991000Y-95695000D02*
X114991000Y-96960000D01*
X114991000Y-99040000D02*
X114991000Y-100305000D01*
X115031000Y-95735000D02*
X115031000Y-100265000D01*
X115071000Y-95776000D02*
X115071000Y-100224000D01*
X115111000Y-95818000D02*
X115111000Y-100182000D01*
X115151000Y-95863000D02*
X115151000Y-100137000D01*
X115191000Y-95908000D02*
X115191000Y-100092000D01*
X115231000Y-95956000D02*
X115231000Y-100044000D01*
X115271000Y-96005000D02*
X115271000Y-99995000D01*
X115311000Y-96056000D02*
X115311000Y-99944000D01*
X115351000Y-96110000D02*
X115351000Y-99890000D01*
X115391000Y-96166000D02*
X115391000Y-99834000D01*
X115431000Y-96224000D02*
X115431000Y-99776000D01*
X115471000Y-96286000D02*
X115471000Y-99714000D01*
X115511000Y-96350000D02*
X115511000Y-99650000D01*
X115551000Y-96419000D02*
X115551000Y-99581000D01*
X115591000Y-96491000D02*
X115591000Y-99509000D01*
X115631000Y-96568000D02*
X115631000Y-99432000D01*
X115671000Y-96650000D02*
X115671000Y-99350000D01*
X115711000Y-96738000D02*
X115711000Y-99262000D01*
X115751000Y-96835000D02*
X115751000Y-99165000D01*
X115791000Y-96941000D02*
X115791000Y-99059000D01*
X115831000Y-97060000D02*
X115831000Y-98940000D01*
X115871000Y-97198000D02*
X115871000Y-98802000D01*
X115911000Y-97367000D02*
X115911000Y-98633000D01*
X115951000Y-97598000D02*
X115951000Y-98402000D01*
X109209759Y-96161000D02*
X109839759Y-96161000D01*
X109524759Y-95846000D02*
X109524759Y-96476000D01*
%TO.C,C2*%
X37154000Y-34064759D02*
X36524000Y-34064759D01*
X36839000Y-33749759D02*
X36839000Y-34379759D01*
X35402000Y-40491000D02*
X34598000Y-40491000D01*
X35633000Y-40451000D02*
X34367000Y-40451000D01*
X35802000Y-40411000D02*
X34198000Y-40411000D01*
X35940000Y-40371000D02*
X34060000Y-40371000D01*
X36059000Y-40331000D02*
X33941000Y-40331000D01*
X36165000Y-40291000D02*
X33835000Y-40291000D01*
X36262000Y-40251000D02*
X33738000Y-40251000D01*
X36350000Y-40211000D02*
X33650000Y-40211000D01*
X36432000Y-40171000D02*
X33568000Y-40171000D01*
X36509000Y-40131000D02*
X33491000Y-40131000D01*
X36581000Y-40091000D02*
X33419000Y-40091000D01*
X36650000Y-40051000D02*
X33350000Y-40051000D01*
X36714000Y-40011000D02*
X33286000Y-40011000D01*
X36776000Y-39971000D02*
X33224000Y-39971000D01*
X36834000Y-39931000D02*
X33166000Y-39931000D01*
X36890000Y-39891000D02*
X33110000Y-39891000D01*
X36944000Y-39851000D02*
X33056000Y-39851000D01*
X36995000Y-39811000D02*
X33005000Y-39811000D01*
X37044000Y-39771000D02*
X32956000Y-39771000D01*
X37092000Y-39731000D02*
X32908000Y-39731000D01*
X37137000Y-39691000D02*
X32863000Y-39691000D01*
X37182000Y-39651000D02*
X32818000Y-39651000D01*
X37224000Y-39611000D02*
X32776000Y-39611000D01*
X37265000Y-39571000D02*
X32735000Y-39571000D01*
X33960000Y-39531000D02*
X32695000Y-39531000D01*
X37305000Y-39531000D02*
X36040000Y-39531000D01*
X33960000Y-39491000D02*
X32657000Y-39491000D01*
X37343000Y-39491000D02*
X36040000Y-39491000D01*
X33960000Y-39451000D02*
X32620000Y-39451000D01*
X37380000Y-39451000D02*
X36040000Y-39451000D01*
X33960000Y-39411000D02*
X32584000Y-39411000D01*
X37416000Y-39411000D02*
X36040000Y-39411000D01*
X33960000Y-39371000D02*
X32550000Y-39371000D01*
X37450000Y-39371000D02*
X36040000Y-39371000D01*
X33960000Y-39331000D02*
X32516000Y-39331000D01*
X37484000Y-39331000D02*
X36040000Y-39331000D01*
X33960000Y-39291000D02*
X32484000Y-39291000D01*
X37516000Y-39291000D02*
X36040000Y-39291000D01*
X33960000Y-39251000D02*
X32452000Y-39251000D01*
X37548000Y-39251000D02*
X36040000Y-39251000D01*
X33960000Y-39211000D02*
X32422000Y-39211000D01*
X37578000Y-39211000D02*
X36040000Y-39211000D01*
X33960000Y-39171000D02*
X32393000Y-39171000D01*
X37607000Y-39171000D02*
X36040000Y-39171000D01*
X33960000Y-39131000D02*
X32364000Y-39131000D01*
X37636000Y-39131000D02*
X36040000Y-39131000D01*
X33960000Y-39091000D02*
X32336000Y-39091000D01*
X37664000Y-39091000D02*
X36040000Y-39091000D01*
X33960000Y-39051000D02*
X32310000Y-39051000D01*
X37690000Y-39051000D02*
X36040000Y-39051000D01*
X33960000Y-39011000D02*
X32284000Y-39011000D01*
X37716000Y-39011000D02*
X36040000Y-39011000D01*
X33960000Y-38971000D02*
X32258000Y-38971000D01*
X37742000Y-38971000D02*
X36040000Y-38971000D01*
X33960000Y-38931000D02*
X32234000Y-38931000D01*
X37766000Y-38931000D02*
X36040000Y-38931000D01*
X33960000Y-38891000D02*
X32210000Y-38891000D01*
X37790000Y-38891000D02*
X36040000Y-38891000D01*
X33960000Y-38851000D02*
X32188000Y-38851000D01*
X37812000Y-38851000D02*
X36040000Y-38851000D01*
X33960000Y-38811000D02*
X32166000Y-38811000D01*
X37834000Y-38811000D02*
X36040000Y-38811000D01*
X33960000Y-38771000D02*
X32144000Y-38771000D01*
X37856000Y-38771000D02*
X36040000Y-38771000D01*
X33960000Y-38731000D02*
X32124000Y-38731000D01*
X37876000Y-38731000D02*
X36040000Y-38731000D01*
X33960000Y-38691000D02*
X32104000Y-38691000D01*
X37896000Y-38691000D02*
X36040000Y-38691000D01*
X33960000Y-38651000D02*
X32084000Y-38651000D01*
X37916000Y-38651000D02*
X36040000Y-38651000D01*
X33960000Y-38611000D02*
X32066000Y-38611000D01*
X37934000Y-38611000D02*
X36040000Y-38611000D01*
X33960000Y-38571000D02*
X32048000Y-38571000D01*
X37952000Y-38571000D02*
X36040000Y-38571000D01*
X33960000Y-38531000D02*
X32030000Y-38531000D01*
X37970000Y-38531000D02*
X36040000Y-38531000D01*
X33960000Y-38491000D02*
X32014000Y-38491000D01*
X37986000Y-38491000D02*
X36040000Y-38491000D01*
X33960000Y-38451000D02*
X31998000Y-38451000D01*
X38002000Y-38451000D02*
X36040000Y-38451000D01*
X33960000Y-38411000D02*
X31982000Y-38411000D01*
X38018000Y-38411000D02*
X36040000Y-38411000D01*
X33960000Y-38371000D02*
X31967000Y-38371000D01*
X38033000Y-38371000D02*
X36040000Y-38371000D01*
X33960000Y-38331000D02*
X31953000Y-38331000D01*
X38047000Y-38331000D02*
X36040000Y-38331000D01*
X33960000Y-38291000D02*
X31939000Y-38291000D01*
X38061000Y-38291000D02*
X36040000Y-38291000D01*
X33960000Y-38251000D02*
X31926000Y-38251000D01*
X38074000Y-38251000D02*
X36040000Y-38251000D01*
X33960000Y-38211000D02*
X31914000Y-38211000D01*
X38086000Y-38211000D02*
X36040000Y-38211000D01*
X33960000Y-38171000D02*
X31902000Y-38171000D01*
X38098000Y-38171000D02*
X36040000Y-38171000D01*
X33960000Y-38131000D02*
X31890000Y-38131000D01*
X38110000Y-38131000D02*
X36040000Y-38131000D01*
X33960000Y-38091000D02*
X31879000Y-38091000D01*
X38121000Y-38091000D02*
X36040000Y-38091000D01*
X33960000Y-38051000D02*
X31869000Y-38051000D01*
X38131000Y-38051000D02*
X36040000Y-38051000D01*
X33960000Y-38011000D02*
X31859000Y-38011000D01*
X38141000Y-38011000D02*
X36040000Y-38011000D01*
X33960000Y-37971000D02*
X31850000Y-37971000D01*
X38150000Y-37971000D02*
X36040000Y-37971000D01*
X33960000Y-37930000D02*
X31841000Y-37930000D01*
X38159000Y-37930000D02*
X36040000Y-37930000D01*
X33960000Y-37890000D02*
X31833000Y-37890000D01*
X38167000Y-37890000D02*
X36040000Y-37890000D01*
X33960000Y-37850000D02*
X31825000Y-37850000D01*
X38175000Y-37850000D02*
X36040000Y-37850000D01*
X33960000Y-37810000D02*
X31818000Y-37810000D01*
X38182000Y-37810000D02*
X36040000Y-37810000D01*
X33960000Y-37770000D02*
X31811000Y-37770000D01*
X38189000Y-37770000D02*
X36040000Y-37770000D01*
X33960000Y-37730000D02*
X31805000Y-37730000D01*
X38195000Y-37730000D02*
X36040000Y-37730000D01*
X33960000Y-37690000D02*
X31799000Y-37690000D01*
X38201000Y-37690000D02*
X36040000Y-37690000D01*
X33960000Y-37650000D02*
X31794000Y-37650000D01*
X38206000Y-37650000D02*
X36040000Y-37650000D01*
X33960000Y-37610000D02*
X31789000Y-37610000D01*
X38211000Y-37610000D02*
X36040000Y-37610000D01*
X33960000Y-37570000D02*
X31785000Y-37570000D01*
X38215000Y-37570000D02*
X36040000Y-37570000D01*
X33960000Y-37530000D02*
X31782000Y-37530000D01*
X38218000Y-37530000D02*
X36040000Y-37530000D01*
X33960000Y-37490000D02*
X31778000Y-37490000D01*
X38222000Y-37490000D02*
X36040000Y-37490000D01*
X38224000Y-37450000D02*
X31776000Y-37450000D01*
X38227000Y-37410000D02*
X31773000Y-37410000D01*
X38228000Y-37370000D02*
X31772000Y-37370000D01*
X38230000Y-37330000D02*
X31770000Y-37330000D01*
X38230000Y-37290000D02*
X31770000Y-37290000D01*
X38230000Y-37250000D02*
X31770000Y-37250000D01*
X38270000Y-37250000D02*
G75*
G03*
X38270000Y-37250000I-3270000J0D01*
G01*
%TO.C,J6*%
X162500000Y-37330000D02*
X161170000Y-37330000D01*
X161170000Y-37330000D02*
X161170000Y-36000000D01*
X161170000Y-34730000D02*
X161170000Y-32130000D01*
X163830000Y-32130000D02*
X161170000Y-32130000D01*
X163830000Y-34730000D02*
X163830000Y-32130000D01*
X163830000Y-34730000D02*
X161170000Y-34730000D01*
%TO.C,R2*%
X150490000Y-46837221D02*
X150490000Y-47162779D01*
X151510000Y-46837221D02*
X151510000Y-47162779D01*
%TO.C,R1*%
X146490000Y-46837221D02*
X146490000Y-47162779D01*
X147510000Y-46837221D02*
X147510000Y-47162779D01*
%TO.C,D50*%
X150265000Y-41515000D02*
X150265000Y-43800000D01*
X151735000Y-41515000D02*
X150265000Y-41515000D01*
X151735000Y-43800000D02*
X151735000Y-41515000D01*
%TO.C,D49*%
X146265000Y-41515000D02*
X146265000Y-43800000D01*
X147735000Y-41515000D02*
X146265000Y-41515000D01*
X147735000Y-43800000D02*
X147735000Y-41515000D01*
%TO.C,C6*%
X69524759Y-95846000D02*
X69524759Y-96476000D01*
X69209759Y-96161000D02*
X69839759Y-96161000D01*
X75951000Y-97598000D02*
X75951000Y-98402000D01*
X75911000Y-97367000D02*
X75911000Y-98633000D01*
X75871000Y-97198000D02*
X75871000Y-98802000D01*
X75831000Y-97060000D02*
X75831000Y-98940000D01*
X75791000Y-96941000D02*
X75791000Y-99059000D01*
X75751000Y-96835000D02*
X75751000Y-99165000D01*
X75711000Y-96738000D02*
X75711000Y-99262000D01*
X75671000Y-96650000D02*
X75671000Y-99350000D01*
X75631000Y-96568000D02*
X75631000Y-99432000D01*
X75591000Y-96491000D02*
X75591000Y-99509000D01*
X75551000Y-96419000D02*
X75551000Y-99581000D01*
X75511000Y-96350000D02*
X75511000Y-99650000D01*
X75471000Y-96286000D02*
X75471000Y-99714000D01*
X75431000Y-96224000D02*
X75431000Y-99776000D01*
X75391000Y-96166000D02*
X75391000Y-99834000D01*
X75351000Y-96110000D02*
X75351000Y-99890000D01*
X75311000Y-96056000D02*
X75311000Y-99944000D01*
X75271000Y-96005000D02*
X75271000Y-99995000D01*
X75231000Y-95956000D02*
X75231000Y-100044000D01*
X75191000Y-95908000D02*
X75191000Y-100092000D01*
X75151000Y-95863000D02*
X75151000Y-100137000D01*
X75111000Y-95818000D02*
X75111000Y-100182000D01*
X75071000Y-95776000D02*
X75071000Y-100224000D01*
X75031000Y-95735000D02*
X75031000Y-100265000D01*
X74991000Y-99040000D02*
X74991000Y-100305000D01*
X74991000Y-95695000D02*
X74991000Y-96960000D01*
X74951000Y-99040000D02*
X74951000Y-100343000D01*
X74951000Y-95657000D02*
X74951000Y-96960000D01*
X74911000Y-99040000D02*
X74911000Y-100380000D01*
X74911000Y-95620000D02*
X74911000Y-96960000D01*
X74871000Y-99040000D02*
X74871000Y-100416000D01*
X74871000Y-95584000D02*
X74871000Y-96960000D01*
X74831000Y-99040000D02*
X74831000Y-100450000D01*
X74831000Y-95550000D02*
X74831000Y-96960000D01*
X74791000Y-99040000D02*
X74791000Y-100484000D01*
X74791000Y-95516000D02*
X74791000Y-96960000D01*
X74751000Y-99040000D02*
X74751000Y-100516000D01*
X74751000Y-95484000D02*
X74751000Y-96960000D01*
X74711000Y-99040000D02*
X74711000Y-100548000D01*
X74711000Y-95452000D02*
X74711000Y-96960000D01*
X74671000Y-99040000D02*
X74671000Y-100578000D01*
X74671000Y-95422000D02*
X74671000Y-96960000D01*
X74631000Y-99040000D02*
X74631000Y-100607000D01*
X74631000Y-95393000D02*
X74631000Y-96960000D01*
X74591000Y-99040000D02*
X74591000Y-100636000D01*
X74591000Y-95364000D02*
X74591000Y-96960000D01*
X74551000Y-99040000D02*
X74551000Y-100664000D01*
X74551000Y-95336000D02*
X74551000Y-96960000D01*
X74511000Y-99040000D02*
X74511000Y-100690000D01*
X74511000Y-95310000D02*
X74511000Y-96960000D01*
X74471000Y-99040000D02*
X74471000Y-100716000D01*
X74471000Y-95284000D02*
X74471000Y-96960000D01*
X74431000Y-99040000D02*
X74431000Y-100742000D01*
X74431000Y-95258000D02*
X74431000Y-96960000D01*
X74391000Y-99040000D02*
X74391000Y-100766000D01*
X74391000Y-95234000D02*
X74391000Y-96960000D01*
X74351000Y-99040000D02*
X74351000Y-100790000D01*
X74351000Y-95210000D02*
X74351000Y-96960000D01*
X74311000Y-99040000D02*
X74311000Y-100812000D01*
X74311000Y-95188000D02*
X74311000Y-96960000D01*
X74271000Y-99040000D02*
X74271000Y-100834000D01*
X74271000Y-95166000D02*
X74271000Y-96960000D01*
X74231000Y-99040000D02*
X74231000Y-100856000D01*
X74231000Y-95144000D02*
X74231000Y-96960000D01*
X74191000Y-99040000D02*
X74191000Y-100876000D01*
X74191000Y-95124000D02*
X74191000Y-96960000D01*
X74151000Y-99040000D02*
X74151000Y-100896000D01*
X74151000Y-95104000D02*
X74151000Y-96960000D01*
X74111000Y-99040000D02*
X74111000Y-100916000D01*
X74111000Y-95084000D02*
X74111000Y-96960000D01*
X74071000Y-99040000D02*
X74071000Y-100934000D01*
X74071000Y-95066000D02*
X74071000Y-96960000D01*
X74031000Y-99040000D02*
X74031000Y-100952000D01*
X74031000Y-95048000D02*
X74031000Y-96960000D01*
X73991000Y-99040000D02*
X73991000Y-100970000D01*
X73991000Y-95030000D02*
X73991000Y-96960000D01*
X73951000Y-99040000D02*
X73951000Y-100986000D01*
X73951000Y-95014000D02*
X73951000Y-96960000D01*
X73911000Y-99040000D02*
X73911000Y-101002000D01*
X73911000Y-94998000D02*
X73911000Y-96960000D01*
X73871000Y-99040000D02*
X73871000Y-101018000D01*
X73871000Y-94982000D02*
X73871000Y-96960000D01*
X73831000Y-99040000D02*
X73831000Y-101033000D01*
X73831000Y-94967000D02*
X73831000Y-96960000D01*
X73791000Y-99040000D02*
X73791000Y-101047000D01*
X73791000Y-94953000D02*
X73791000Y-96960000D01*
X73751000Y-99040000D02*
X73751000Y-101061000D01*
X73751000Y-94939000D02*
X73751000Y-96960000D01*
X73711000Y-99040000D02*
X73711000Y-101074000D01*
X73711000Y-94926000D02*
X73711000Y-96960000D01*
X73671000Y-99040000D02*
X73671000Y-101086000D01*
X73671000Y-94914000D02*
X73671000Y-96960000D01*
X73631000Y-99040000D02*
X73631000Y-101098000D01*
X73631000Y-94902000D02*
X73631000Y-96960000D01*
X73591000Y-99040000D02*
X73591000Y-101110000D01*
X73591000Y-94890000D02*
X73591000Y-96960000D01*
X73551000Y-99040000D02*
X73551000Y-101121000D01*
X73551000Y-94879000D02*
X73551000Y-96960000D01*
X73511000Y-99040000D02*
X73511000Y-101131000D01*
X73511000Y-94869000D02*
X73511000Y-96960000D01*
X73471000Y-99040000D02*
X73471000Y-101141000D01*
X73471000Y-94859000D02*
X73471000Y-96960000D01*
X73431000Y-99040000D02*
X73431000Y-101150000D01*
X73431000Y-94850000D02*
X73431000Y-96960000D01*
X73390000Y-99040000D02*
X73390000Y-101159000D01*
X73390000Y-94841000D02*
X73390000Y-96960000D01*
X73350000Y-99040000D02*
X73350000Y-101167000D01*
X73350000Y-94833000D02*
X73350000Y-96960000D01*
X73310000Y-99040000D02*
X73310000Y-101175000D01*
X73310000Y-94825000D02*
X73310000Y-96960000D01*
X73270000Y-99040000D02*
X73270000Y-101182000D01*
X73270000Y-94818000D02*
X73270000Y-96960000D01*
X73230000Y-99040000D02*
X73230000Y-101189000D01*
X73230000Y-94811000D02*
X73230000Y-96960000D01*
X73190000Y-99040000D02*
X73190000Y-101195000D01*
X73190000Y-94805000D02*
X73190000Y-96960000D01*
X73150000Y-99040000D02*
X73150000Y-101201000D01*
X73150000Y-94799000D02*
X73150000Y-96960000D01*
X73110000Y-99040000D02*
X73110000Y-101206000D01*
X73110000Y-94794000D02*
X73110000Y-96960000D01*
X73070000Y-99040000D02*
X73070000Y-101211000D01*
X73070000Y-94789000D02*
X73070000Y-96960000D01*
X73030000Y-99040000D02*
X73030000Y-101215000D01*
X73030000Y-94785000D02*
X73030000Y-96960000D01*
X72990000Y-99040000D02*
X72990000Y-101218000D01*
X72990000Y-94782000D02*
X72990000Y-96960000D01*
X72950000Y-99040000D02*
X72950000Y-101222000D01*
X72950000Y-94778000D02*
X72950000Y-96960000D01*
X72910000Y-94776000D02*
X72910000Y-101224000D01*
X72870000Y-94773000D02*
X72870000Y-101227000D01*
X72830000Y-94772000D02*
X72830000Y-101228000D01*
X72790000Y-94770000D02*
X72790000Y-101230000D01*
X72750000Y-94770000D02*
X72750000Y-101230000D01*
X72710000Y-94770000D02*
X72710000Y-101230000D01*
X75980000Y-98000000D02*
G75*
G03*
X75980000Y-98000000I-3270000J0D01*
G01*
%TO.C,C4*%
X29524759Y-95846000D02*
X29524759Y-96476000D01*
X29209759Y-96161000D02*
X29839759Y-96161000D01*
X35951000Y-97598000D02*
X35951000Y-98402000D01*
X35911000Y-97367000D02*
X35911000Y-98633000D01*
X35871000Y-97198000D02*
X35871000Y-98802000D01*
X35831000Y-97060000D02*
X35831000Y-98940000D01*
X35791000Y-96941000D02*
X35791000Y-99059000D01*
X35751000Y-96835000D02*
X35751000Y-99165000D01*
X35711000Y-96738000D02*
X35711000Y-99262000D01*
X35671000Y-96650000D02*
X35671000Y-99350000D01*
X35631000Y-96568000D02*
X35631000Y-99432000D01*
X35591000Y-96491000D02*
X35591000Y-99509000D01*
X35551000Y-96419000D02*
X35551000Y-99581000D01*
X35511000Y-96350000D02*
X35511000Y-99650000D01*
X35471000Y-96286000D02*
X35471000Y-99714000D01*
X35431000Y-96224000D02*
X35431000Y-99776000D01*
X35391000Y-96166000D02*
X35391000Y-99834000D01*
X35351000Y-96110000D02*
X35351000Y-99890000D01*
X35311000Y-96056000D02*
X35311000Y-99944000D01*
X35271000Y-96005000D02*
X35271000Y-99995000D01*
X35231000Y-95956000D02*
X35231000Y-100044000D01*
X35191000Y-95908000D02*
X35191000Y-100092000D01*
X35151000Y-95863000D02*
X35151000Y-100137000D01*
X35111000Y-95818000D02*
X35111000Y-100182000D01*
X35071000Y-95776000D02*
X35071000Y-100224000D01*
X35031000Y-95735000D02*
X35031000Y-100265000D01*
X34991000Y-99040000D02*
X34991000Y-100305000D01*
X34991000Y-95695000D02*
X34991000Y-96960000D01*
X34951000Y-99040000D02*
X34951000Y-100343000D01*
X34951000Y-95657000D02*
X34951000Y-96960000D01*
X34911000Y-99040000D02*
X34911000Y-100380000D01*
X34911000Y-95620000D02*
X34911000Y-96960000D01*
X34871000Y-99040000D02*
X34871000Y-100416000D01*
X34871000Y-95584000D02*
X34871000Y-96960000D01*
X34831000Y-99040000D02*
X34831000Y-100450000D01*
X34831000Y-95550000D02*
X34831000Y-96960000D01*
X34791000Y-99040000D02*
X34791000Y-100484000D01*
X34791000Y-95516000D02*
X34791000Y-96960000D01*
X34751000Y-99040000D02*
X34751000Y-100516000D01*
X34751000Y-95484000D02*
X34751000Y-96960000D01*
X34711000Y-99040000D02*
X34711000Y-100548000D01*
X34711000Y-95452000D02*
X34711000Y-96960000D01*
X34671000Y-99040000D02*
X34671000Y-100578000D01*
X34671000Y-95422000D02*
X34671000Y-96960000D01*
X34631000Y-99040000D02*
X34631000Y-100607000D01*
X34631000Y-95393000D02*
X34631000Y-96960000D01*
X34591000Y-99040000D02*
X34591000Y-100636000D01*
X34591000Y-95364000D02*
X34591000Y-96960000D01*
X34551000Y-99040000D02*
X34551000Y-100664000D01*
X34551000Y-95336000D02*
X34551000Y-96960000D01*
X34511000Y-99040000D02*
X34511000Y-100690000D01*
X34511000Y-95310000D02*
X34511000Y-96960000D01*
X34471000Y-99040000D02*
X34471000Y-100716000D01*
X34471000Y-95284000D02*
X34471000Y-96960000D01*
X34431000Y-99040000D02*
X34431000Y-100742000D01*
X34431000Y-95258000D02*
X34431000Y-96960000D01*
X34391000Y-99040000D02*
X34391000Y-100766000D01*
X34391000Y-95234000D02*
X34391000Y-96960000D01*
X34351000Y-99040000D02*
X34351000Y-100790000D01*
X34351000Y-95210000D02*
X34351000Y-96960000D01*
X34311000Y-99040000D02*
X34311000Y-100812000D01*
X34311000Y-95188000D02*
X34311000Y-96960000D01*
X34271000Y-99040000D02*
X34271000Y-100834000D01*
X34271000Y-95166000D02*
X34271000Y-96960000D01*
X34231000Y-99040000D02*
X34231000Y-100856000D01*
X34231000Y-95144000D02*
X34231000Y-96960000D01*
X34191000Y-99040000D02*
X34191000Y-100876000D01*
X34191000Y-95124000D02*
X34191000Y-96960000D01*
X34151000Y-99040000D02*
X34151000Y-100896000D01*
X34151000Y-95104000D02*
X34151000Y-96960000D01*
X34111000Y-99040000D02*
X34111000Y-100916000D01*
X34111000Y-95084000D02*
X34111000Y-96960000D01*
X34071000Y-99040000D02*
X34071000Y-100934000D01*
X34071000Y-95066000D02*
X34071000Y-96960000D01*
X34031000Y-99040000D02*
X34031000Y-100952000D01*
X34031000Y-95048000D02*
X34031000Y-96960000D01*
X33991000Y-99040000D02*
X33991000Y-100970000D01*
X33991000Y-95030000D02*
X33991000Y-96960000D01*
X33951000Y-99040000D02*
X33951000Y-100986000D01*
X33951000Y-95014000D02*
X33951000Y-96960000D01*
X33911000Y-99040000D02*
X33911000Y-101002000D01*
X33911000Y-94998000D02*
X33911000Y-96960000D01*
X33871000Y-99040000D02*
X33871000Y-101018000D01*
X33871000Y-94982000D02*
X33871000Y-96960000D01*
X33831000Y-99040000D02*
X33831000Y-101033000D01*
X33831000Y-94967000D02*
X33831000Y-96960000D01*
X33791000Y-99040000D02*
X33791000Y-101047000D01*
X33791000Y-94953000D02*
X33791000Y-96960000D01*
X33751000Y-99040000D02*
X33751000Y-101061000D01*
X33751000Y-94939000D02*
X33751000Y-96960000D01*
X33711000Y-99040000D02*
X33711000Y-101074000D01*
X33711000Y-94926000D02*
X33711000Y-96960000D01*
X33671000Y-99040000D02*
X33671000Y-101086000D01*
X33671000Y-94914000D02*
X33671000Y-96960000D01*
X33631000Y-99040000D02*
X33631000Y-101098000D01*
X33631000Y-94902000D02*
X33631000Y-96960000D01*
X33591000Y-99040000D02*
X33591000Y-101110000D01*
X33591000Y-94890000D02*
X33591000Y-96960000D01*
X33551000Y-99040000D02*
X33551000Y-101121000D01*
X33551000Y-94879000D02*
X33551000Y-96960000D01*
X33511000Y-99040000D02*
X33511000Y-101131000D01*
X33511000Y-94869000D02*
X33511000Y-96960000D01*
X33471000Y-99040000D02*
X33471000Y-101141000D01*
X33471000Y-94859000D02*
X33471000Y-96960000D01*
X33431000Y-99040000D02*
X33431000Y-101150000D01*
X33431000Y-94850000D02*
X33431000Y-96960000D01*
X33390000Y-99040000D02*
X33390000Y-101159000D01*
X33390000Y-94841000D02*
X33390000Y-96960000D01*
X33350000Y-99040000D02*
X33350000Y-101167000D01*
X33350000Y-94833000D02*
X33350000Y-96960000D01*
X33310000Y-99040000D02*
X33310000Y-101175000D01*
X33310000Y-94825000D02*
X33310000Y-96960000D01*
X33270000Y-99040000D02*
X33270000Y-101182000D01*
X33270000Y-94818000D02*
X33270000Y-96960000D01*
X33230000Y-99040000D02*
X33230000Y-101189000D01*
X33230000Y-94811000D02*
X33230000Y-96960000D01*
X33190000Y-99040000D02*
X33190000Y-101195000D01*
X33190000Y-94805000D02*
X33190000Y-96960000D01*
X33150000Y-99040000D02*
X33150000Y-101201000D01*
X33150000Y-94799000D02*
X33150000Y-96960000D01*
X33110000Y-99040000D02*
X33110000Y-101206000D01*
X33110000Y-94794000D02*
X33110000Y-96960000D01*
X33070000Y-99040000D02*
X33070000Y-101211000D01*
X33070000Y-94789000D02*
X33070000Y-96960000D01*
X33030000Y-99040000D02*
X33030000Y-101215000D01*
X33030000Y-94785000D02*
X33030000Y-96960000D01*
X32990000Y-99040000D02*
X32990000Y-101218000D01*
X32990000Y-94782000D02*
X32990000Y-96960000D01*
X32950000Y-99040000D02*
X32950000Y-101222000D01*
X32950000Y-94778000D02*
X32950000Y-96960000D01*
X32910000Y-94776000D02*
X32910000Y-101224000D01*
X32870000Y-94773000D02*
X32870000Y-101227000D01*
X32830000Y-94772000D02*
X32830000Y-101228000D01*
X32790000Y-94770000D02*
X32790000Y-101230000D01*
X32750000Y-94770000D02*
X32750000Y-101230000D01*
X32710000Y-94770000D02*
X32710000Y-101230000D01*
X35980000Y-98000000D02*
G75*
G03*
X35980000Y-98000000I-3270000J0D01*
G01*
%TO.C,J4*%
X23540000Y-27080000D02*
X23540000Y-25750000D01*
X23540000Y-25750000D02*
X24870000Y-25750000D01*
X23540000Y-28350000D02*
X26140000Y-28350000D01*
X26140000Y-28350000D02*
X26140000Y-25750000D01*
X26140000Y-25750000D02*
X74460000Y-25750000D01*
X74460000Y-30950000D02*
X74460000Y-25750000D01*
X23540000Y-30950000D02*
X74460000Y-30950000D01*
X23540000Y-30950000D02*
X23540000Y-28350000D01*
%TO.C,J1*%
X34000000Y-51120000D02*
X35330000Y-51120000D01*
X35330000Y-51120000D02*
X35330000Y-52450000D01*
X32730000Y-51120000D02*
X32730000Y-53720000D01*
X32730000Y-53720000D02*
X35330000Y-53720000D01*
X35330000Y-53720000D02*
X35330000Y-91880000D01*
X30130000Y-91880000D02*
X35330000Y-91880000D01*
X30130000Y-51120000D02*
X30130000Y-91880000D01*
X30130000Y-51120000D02*
X32730000Y-51120000D01*
%TO.C,J2*%
X74000000Y-51120000D02*
X75330000Y-51120000D01*
X75330000Y-51120000D02*
X75330000Y-52450000D01*
X72730000Y-51120000D02*
X72730000Y-53720000D01*
X72730000Y-53720000D02*
X75330000Y-53720000D01*
X75330000Y-53720000D02*
X75330000Y-91880000D01*
X70130000Y-91880000D02*
X75330000Y-91880000D01*
X70130000Y-51120000D02*
X70130000Y-91880000D01*
X70130000Y-51120000D02*
X72730000Y-51120000D01*
%TO.C,J3*%
X114000000Y-51120000D02*
X115330000Y-51120000D01*
X115330000Y-51120000D02*
X115330000Y-52450000D01*
X112730000Y-51120000D02*
X112730000Y-53720000D01*
X112730000Y-53720000D02*
X115330000Y-53720000D01*
X115330000Y-53720000D02*
X115330000Y-91880000D01*
X110130000Y-91880000D02*
X115330000Y-91880000D01*
X110130000Y-51120000D02*
X110130000Y-91880000D01*
X110130000Y-51120000D02*
X112730000Y-51120000D01*
D11*
%TO.C,Q24*%
X121635000Y-51270000D02*
X119765000Y-51270000D01*
X121635000Y-56170000D02*
X119765000Y-56170000D01*
X124135000Y-51270000D02*
X122635000Y-51270000D01*
X124135000Y-56170000D02*
X124135000Y-51270000D01*
X122635000Y-56170000D02*
X124135000Y-56170000D01*
%TO.C,Q23*%
X131500000Y-51270000D02*
X129630000Y-51270000D01*
X131500000Y-56170000D02*
X129630000Y-56170000D01*
X134000000Y-51270000D02*
X132500000Y-51270000D01*
X134000000Y-56170000D02*
X134000000Y-51270000D01*
X132500000Y-56170000D02*
X134000000Y-56170000D01*
%TO.C,Q22*%
X131500000Y-65230000D02*
X129630000Y-65230000D01*
X131500000Y-70130000D02*
X129630000Y-70130000D01*
X134000000Y-65230000D02*
X132500000Y-65230000D01*
X134000000Y-70130000D02*
X134000000Y-65230000D01*
X132500000Y-70130000D02*
X134000000Y-70130000D01*
%TO.C,Q21*%
X121635000Y-65230000D02*
X119765000Y-65230000D01*
X121635000Y-70130000D02*
X119765000Y-70130000D01*
X124135000Y-65230000D02*
X122635000Y-65230000D01*
X124135000Y-70130000D02*
X124135000Y-65230000D01*
X122635000Y-70130000D02*
X124135000Y-70130000D01*
%TO.C,Q20*%
X121635000Y-72870000D02*
X119765000Y-72870000D01*
X121635000Y-77770000D02*
X119765000Y-77770000D01*
X124135000Y-72870000D02*
X122635000Y-72870000D01*
X124135000Y-77770000D02*
X124135000Y-72870000D01*
X122635000Y-77770000D02*
X124135000Y-77770000D01*
%TO.C,Q19*%
X131500000Y-72870000D02*
X129630000Y-72870000D01*
X131500000Y-77770000D02*
X129630000Y-77770000D01*
X134000000Y-72870000D02*
X132500000Y-72870000D01*
X134000000Y-77770000D02*
X134000000Y-72870000D01*
X132500000Y-77770000D02*
X134000000Y-77770000D01*
%TO.C,Q18*%
X131500000Y-86830000D02*
X129630000Y-86830000D01*
X131500000Y-91730000D02*
X129630000Y-91730000D01*
X134000000Y-86830000D02*
X132500000Y-86830000D01*
X134000000Y-91730000D02*
X134000000Y-86830000D01*
X132500000Y-91730000D02*
X134000000Y-91730000D01*
%TO.C,Q17*%
X121635000Y-86830000D02*
X119765000Y-86830000D01*
X121635000Y-91730000D02*
X119765000Y-91730000D01*
X124135000Y-86830000D02*
X122635000Y-86830000D01*
X124135000Y-91730000D02*
X124135000Y-86830000D01*
X122635000Y-91730000D02*
X124135000Y-91730000D01*
%TO.C,Q16*%
X81635000Y-51270000D02*
X79765000Y-51270000D01*
X81635000Y-56170000D02*
X79765000Y-56170000D01*
X84135000Y-51270000D02*
X82635000Y-51270000D01*
X84135000Y-56170000D02*
X84135000Y-51270000D01*
X82635000Y-56170000D02*
X84135000Y-56170000D01*
%TO.C,Q15*%
X91500000Y-51270000D02*
X89630000Y-51270000D01*
X91500000Y-56170000D02*
X89630000Y-56170000D01*
X94000000Y-51270000D02*
X92500000Y-51270000D01*
X94000000Y-56170000D02*
X94000000Y-51270000D01*
X92500000Y-56170000D02*
X94000000Y-56170000D01*
%TO.C,Q14*%
X91500000Y-65230000D02*
X89630000Y-65230000D01*
X91500000Y-70130000D02*
X89630000Y-70130000D01*
X94000000Y-65230000D02*
X92500000Y-65230000D01*
X94000000Y-70130000D02*
X94000000Y-65230000D01*
X92500000Y-70130000D02*
X94000000Y-70130000D01*
%TO.C,Q13*%
X81635000Y-65230000D02*
X79765000Y-65230000D01*
X81635000Y-70130000D02*
X79765000Y-70130000D01*
X84135000Y-65230000D02*
X82635000Y-65230000D01*
X84135000Y-70130000D02*
X84135000Y-65230000D01*
X82635000Y-70130000D02*
X84135000Y-70130000D01*
%TO.C,Q12*%
X81635000Y-72870000D02*
X79765000Y-72870000D01*
X81635000Y-77770000D02*
X79765000Y-77770000D01*
X84135000Y-72870000D02*
X82635000Y-72870000D01*
X84135000Y-77770000D02*
X84135000Y-72870000D01*
X82635000Y-77770000D02*
X84135000Y-77770000D01*
%TO.C,Q11*%
X91500000Y-72870000D02*
X89630000Y-72870000D01*
X91500000Y-77770000D02*
X89630000Y-77770000D01*
X94000000Y-72870000D02*
X92500000Y-72870000D01*
X94000000Y-77770000D02*
X94000000Y-72870000D01*
X92500000Y-77770000D02*
X94000000Y-77770000D01*
%TO.C,Q10*%
X91500000Y-86830000D02*
X89630000Y-86830000D01*
X91500000Y-91730000D02*
X89630000Y-91730000D01*
X94000000Y-86830000D02*
X92500000Y-86830000D01*
X94000000Y-91730000D02*
X94000000Y-86830000D01*
X92500000Y-91730000D02*
X94000000Y-91730000D01*
%TO.C,Q9*%
X81635000Y-86830000D02*
X79765000Y-86830000D01*
X81635000Y-91730000D02*
X79765000Y-91730000D01*
X84135000Y-86830000D02*
X82635000Y-86830000D01*
X84135000Y-91730000D02*
X84135000Y-86830000D01*
X82635000Y-91730000D02*
X84135000Y-91730000D01*
%TO.C,Q8*%
X41635000Y-51270000D02*
X39765000Y-51270000D01*
X41635000Y-56170000D02*
X39765000Y-56170000D01*
X44135000Y-51270000D02*
X42635000Y-51270000D01*
X44135000Y-56170000D02*
X44135000Y-51270000D01*
X42635000Y-56170000D02*
X44135000Y-56170000D01*
%TO.C,Q7*%
X51500000Y-51270000D02*
X49630000Y-51270000D01*
X51500000Y-56170000D02*
X49630000Y-56170000D01*
X54000000Y-51270000D02*
X52500000Y-51270000D01*
X54000000Y-56170000D02*
X54000000Y-51270000D01*
X52500000Y-56170000D02*
X54000000Y-56170000D01*
%TO.C,Q6*%
X51500000Y-65230000D02*
X49630000Y-65230000D01*
X51500000Y-70130000D02*
X49630000Y-70130000D01*
X54000000Y-65230000D02*
X52500000Y-65230000D01*
X54000000Y-70130000D02*
X54000000Y-65230000D01*
X52500000Y-70130000D02*
X54000000Y-70130000D01*
%TO.C,Q5*%
X41635000Y-65230000D02*
X39765000Y-65230000D01*
X41635000Y-70130000D02*
X39765000Y-70130000D01*
X44135000Y-65230000D02*
X42635000Y-65230000D01*
X44135000Y-70130000D02*
X44135000Y-65230000D01*
X42635000Y-70130000D02*
X44135000Y-70130000D01*
%TO.C,Q4*%
X41635000Y-72870000D02*
X39765000Y-72870000D01*
X41635000Y-77770000D02*
X39765000Y-77770000D01*
X44135000Y-72870000D02*
X42635000Y-72870000D01*
X44135000Y-77770000D02*
X44135000Y-72870000D01*
X42635000Y-77770000D02*
X44135000Y-77770000D01*
%TO.C,Q3*%
X51500000Y-72870000D02*
X49630000Y-72870000D01*
X51500000Y-77770000D02*
X49630000Y-77770000D01*
X54000000Y-72870000D02*
X52500000Y-72870000D01*
X54000000Y-77770000D02*
X54000000Y-72870000D01*
X52500000Y-77770000D02*
X54000000Y-77770000D01*
%TO.C,Q2*%
X51500000Y-86830000D02*
X49630000Y-86830000D01*
X51500000Y-91730000D02*
X49630000Y-91730000D01*
X54000000Y-86830000D02*
X52500000Y-86830000D01*
X54000000Y-91730000D02*
X54000000Y-86830000D01*
X52500000Y-91730000D02*
X54000000Y-91730000D01*
%TO.C,Q1*%
X41635000Y-86830000D02*
X39765000Y-86830000D01*
X41635000Y-91730000D02*
X39765000Y-91730000D01*
X44135000Y-86830000D02*
X42635000Y-86830000D01*
X44135000Y-91730000D02*
X44135000Y-86830000D01*
X42635000Y-91730000D02*
X44135000Y-91730000D01*
D12*
%TO.C,J5*%
X154400000Y-97050000D02*
X157250000Y-97050000D01*
X154400000Y-94200000D02*
X154400000Y-97050000D01*
X165860000Y-69090000D02*
X165860000Y-70900000D01*
X164460000Y-69090000D02*
X165860000Y-69090000D01*
X164460000Y-44990000D02*
X164460000Y-69090000D01*
X154640000Y-44990000D02*
X164460000Y-44990000D01*
X154640000Y-70900000D02*
X154640000Y-44990000D01*
X165860000Y-72710000D02*
X165860000Y-70900000D01*
X164460000Y-72710000D02*
X165860000Y-72710000D01*
X164460000Y-96810000D02*
X164460000Y-72710000D01*
X154640000Y-96810000D02*
X164460000Y-96810000D01*
X154640000Y-70900000D02*
X154640000Y-96810000D01*
X163800000Y-43100000D02*
X163800000Y-44990000D01*
X160280000Y-43100000D02*
X160280000Y-44990000D01*
X163800000Y-98700000D02*
X163800000Y-96810000D01*
X160280000Y-98700000D02*
X160280000Y-96810000D01*
X163800000Y-43100000D02*
G75*
G03*
X160280000Y-43100000I-1760000J0D01*
G01*
X160280000Y-98700000D02*
G75*
G03*
X163800000Y-98700000I1760000J0D01*
G01*
%TD*%
M02*
