%TF.GenerationSoftware,KiCad,Pcbnew,(5.1.6)-1*%
%TF.CreationDate,2020-07-20T16:14:19+09:00*%
%TF.ProjectId,PWM-LT8500,50574d2d-4c54-4383-9530-302e6b696361,rev?*%
%TF.SameCoordinates,Original*%
%TF.FileFunction,Legend,Bot*%
%TF.FilePolarity,Positive*%
%FSLAX46Y46*%
G04 Gerber Fmt 4.6, Leading zero omitted, Abs format (unit mm)*
G04 Created by KiCad (PCBNEW (5.1.6)-1) date 2020-07-20 16:14:19*
%MOMM*%
%LPD*%
G01*
G04 APERTURE LIST*
%ADD10C,0.120000*%
G04 APERTURE END LIST*
D10*
%TO.C,D38*%
X127700000Y-72170000D02*
X125850000Y-72170000D01*
X127700000Y-73370000D02*
X125850000Y-73370000D01*
X125850000Y-73370000D02*
X125850000Y-72170000D01*
%TO.C,D48*%
X117700000Y-51850000D02*
X115850000Y-51850000D01*
X117700000Y-53050000D02*
X115850000Y-53050000D01*
X115850000Y-53050000D02*
X115850000Y-51850000D01*
%TO.C,D47*%
X117700000Y-54390000D02*
X115850000Y-54390000D01*
X117700000Y-55590000D02*
X115850000Y-55590000D01*
X115850000Y-55590000D02*
X115850000Y-54390000D01*
%TO.C,D46*%
X127700000Y-51850000D02*
X125850000Y-51850000D01*
X127700000Y-53050000D02*
X125850000Y-53050000D01*
X125850000Y-53050000D02*
X125850000Y-51850000D01*
%TO.C,D45*%
X127700000Y-54390000D02*
X125850000Y-54390000D01*
X127700000Y-55590000D02*
X125850000Y-55590000D01*
X125850000Y-55590000D02*
X125850000Y-54390000D01*
%TO.C,D44*%
X127700000Y-67090000D02*
X125850000Y-67090000D01*
X127700000Y-68290000D02*
X125850000Y-68290000D01*
X125850000Y-68290000D02*
X125850000Y-67090000D01*
%TO.C,D43*%
X127700000Y-69630000D02*
X125850000Y-69630000D01*
X127700000Y-70830000D02*
X125850000Y-70830000D01*
X125850000Y-70830000D02*
X125850000Y-69630000D01*
%TO.C,D42*%
X117700000Y-67090000D02*
X115850000Y-67090000D01*
X117700000Y-68290000D02*
X115850000Y-68290000D01*
X115850000Y-68290000D02*
X115850000Y-67090000D01*
%TO.C,D41*%
X117700000Y-69630000D02*
X115850000Y-69630000D01*
X117700000Y-70830000D02*
X115850000Y-70830000D01*
X115850000Y-70830000D02*
X115850000Y-69630000D01*
%TO.C,D40*%
X117700000Y-72170000D02*
X115850000Y-72170000D01*
X117700000Y-73370000D02*
X115850000Y-73370000D01*
X115850000Y-73370000D02*
X115850000Y-72170000D01*
%TO.C,D39*%
X117700000Y-74710000D02*
X115850000Y-74710000D01*
X117700000Y-75910000D02*
X115850000Y-75910000D01*
X115850000Y-75910000D02*
X115850000Y-74710000D01*
%TO.C,D37*%
X127700000Y-74710000D02*
X125850000Y-74710000D01*
X127700000Y-75910000D02*
X125850000Y-75910000D01*
X125850000Y-75910000D02*
X125850000Y-74710000D01*
%TO.C,D36*%
X127700000Y-87410000D02*
X125850000Y-87410000D01*
X127700000Y-88610000D02*
X125850000Y-88610000D01*
X125850000Y-88610000D02*
X125850000Y-87410000D01*
%TO.C,D35*%
X127700000Y-89950000D02*
X125850000Y-89950000D01*
X127700000Y-91150000D02*
X125850000Y-91150000D01*
X125850000Y-91150000D02*
X125850000Y-89950000D01*
%TO.C,D34*%
X117700000Y-87410000D02*
X115850000Y-87410000D01*
X117700000Y-88610000D02*
X115850000Y-88610000D01*
X115850000Y-88610000D02*
X115850000Y-87410000D01*
%TO.C,D33*%
X117700000Y-89950000D02*
X115850000Y-89950000D01*
X117700000Y-91150000D02*
X115850000Y-91150000D01*
X115850000Y-91150000D02*
X115850000Y-89950000D01*
%TO.C,D32*%
X77700000Y-51850000D02*
X75850000Y-51850000D01*
X77700000Y-53050000D02*
X75850000Y-53050000D01*
X75850000Y-53050000D02*
X75850000Y-51850000D01*
%TO.C,D31*%
X77700000Y-54390000D02*
X75850000Y-54390000D01*
X77700000Y-55590000D02*
X75850000Y-55590000D01*
X75850000Y-55590000D02*
X75850000Y-54390000D01*
%TO.C,D30*%
X87700000Y-51850000D02*
X85850000Y-51850000D01*
X87700000Y-53050000D02*
X85850000Y-53050000D01*
X85850000Y-53050000D02*
X85850000Y-51850000D01*
%TO.C,D29*%
X87700000Y-54390000D02*
X85850000Y-54390000D01*
X87700000Y-55590000D02*
X85850000Y-55590000D01*
X85850000Y-55590000D02*
X85850000Y-54390000D01*
%TO.C,D28*%
X87700000Y-67090000D02*
X85850000Y-67090000D01*
X87700000Y-68290000D02*
X85850000Y-68290000D01*
X85850000Y-68290000D02*
X85850000Y-67090000D01*
%TO.C,D27*%
X87700000Y-69630000D02*
X85850000Y-69630000D01*
X87700000Y-70830000D02*
X85850000Y-70830000D01*
X85850000Y-70830000D02*
X85850000Y-69630000D01*
%TO.C,D26*%
X77700000Y-67090000D02*
X75850000Y-67090000D01*
X77700000Y-68290000D02*
X75850000Y-68290000D01*
X75850000Y-68290000D02*
X75850000Y-67090000D01*
%TO.C,D25*%
X77700000Y-69630000D02*
X75850000Y-69630000D01*
X77700000Y-70830000D02*
X75850000Y-70830000D01*
X75850000Y-70830000D02*
X75850000Y-69630000D01*
%TO.C,D24*%
X77700000Y-72170000D02*
X75850000Y-72170000D01*
X77700000Y-73370000D02*
X75850000Y-73370000D01*
X75850000Y-73370000D02*
X75850000Y-72170000D01*
%TO.C,D23*%
X77700000Y-74710000D02*
X75850000Y-74710000D01*
X77700000Y-75910000D02*
X75850000Y-75910000D01*
X75850000Y-75910000D02*
X75850000Y-74710000D01*
%TO.C,D22*%
X87700000Y-72170000D02*
X85850000Y-72170000D01*
X87700000Y-73370000D02*
X85850000Y-73370000D01*
X85850000Y-73370000D02*
X85850000Y-72170000D01*
%TO.C,D21*%
X87700000Y-74710000D02*
X85850000Y-74710000D01*
X87700000Y-75910000D02*
X85850000Y-75910000D01*
X85850000Y-75910000D02*
X85850000Y-74710000D01*
%TO.C,D20*%
X87700000Y-87410000D02*
X85850000Y-87410000D01*
X87700000Y-88610000D02*
X85850000Y-88610000D01*
X85850000Y-88610000D02*
X85850000Y-87410000D01*
%TO.C,D19*%
X87700000Y-89950000D02*
X85850000Y-89950000D01*
X87700000Y-91150000D02*
X85850000Y-91150000D01*
X85850000Y-91150000D02*
X85850000Y-89950000D01*
%TO.C,D18*%
X77700000Y-87410000D02*
X75850000Y-87410000D01*
X77700000Y-88610000D02*
X75850000Y-88610000D01*
X75850000Y-88610000D02*
X75850000Y-87410000D01*
%TO.C,D17*%
X77700000Y-89950000D02*
X75850000Y-89950000D01*
X77700000Y-91150000D02*
X75850000Y-91150000D01*
X75850000Y-91150000D02*
X75850000Y-89950000D01*
%TO.C,D16*%
X37700000Y-51990000D02*
X35850000Y-51990000D01*
X37700000Y-53190000D02*
X35850000Y-53190000D01*
X35850000Y-53190000D02*
X35850000Y-51990000D01*
%TO.C,D15*%
X37700000Y-54250000D02*
X35850000Y-54250000D01*
X37700000Y-55450000D02*
X35850000Y-55450000D01*
X35850000Y-55450000D02*
X35850000Y-54250000D01*
%TO.C,D14*%
X47700000Y-51900000D02*
X45850000Y-51900000D01*
X47700000Y-53100000D02*
X45850000Y-53100000D01*
X45850000Y-53100000D02*
X45850000Y-51900000D01*
%TO.C,D13*%
X47700000Y-54380000D02*
X45850000Y-54380000D01*
X47700000Y-55580000D02*
X45850000Y-55580000D01*
X45850000Y-55580000D02*
X45850000Y-54380000D01*
%TO.C,D12*%
X47700000Y-67090000D02*
X45850000Y-67090000D01*
X47700000Y-68290000D02*
X45850000Y-68290000D01*
X45850000Y-68290000D02*
X45850000Y-67090000D01*
%TO.C,D11*%
X47700000Y-69630000D02*
X45850000Y-69630000D01*
X47700000Y-70830000D02*
X45850000Y-70830000D01*
X45850000Y-70830000D02*
X45850000Y-69630000D01*
%TO.C,D10*%
X37700000Y-67090000D02*
X35850000Y-67090000D01*
X37700000Y-68290000D02*
X35850000Y-68290000D01*
X35850000Y-68290000D02*
X35850000Y-67090000D01*
%TO.C,D9*%
X37700000Y-69630000D02*
X35850000Y-69630000D01*
X37700000Y-70830000D02*
X35850000Y-70830000D01*
X35850000Y-70830000D02*
X35850000Y-69630000D01*
%TO.C,D8*%
X37700000Y-72170000D02*
X35850000Y-72170000D01*
X37700000Y-73370000D02*
X35850000Y-73370000D01*
X35850000Y-73370000D02*
X35850000Y-72170000D01*
%TO.C,D7*%
X37700000Y-74710000D02*
X35850000Y-74710000D01*
X37700000Y-75910000D02*
X35850000Y-75910000D01*
X35850000Y-75910000D02*
X35850000Y-74710000D01*
%TO.C,D6*%
X47700000Y-72170000D02*
X45850000Y-72170000D01*
X47700000Y-73370000D02*
X45850000Y-73370000D01*
X45850000Y-73370000D02*
X45850000Y-72170000D01*
%TO.C,D5*%
X47700000Y-74710000D02*
X45850000Y-74710000D01*
X47700000Y-75910000D02*
X45850000Y-75910000D01*
X45850000Y-75910000D02*
X45850000Y-74710000D01*
%TO.C,D4*%
X47700000Y-87410000D02*
X45850000Y-87410000D01*
X47700000Y-88610000D02*
X45850000Y-88610000D01*
X45850000Y-88610000D02*
X45850000Y-87410000D01*
%TO.C,D3*%
X47700000Y-89950000D02*
X45850000Y-89950000D01*
X47700000Y-91150000D02*
X45850000Y-91150000D01*
X45850000Y-91150000D02*
X45850000Y-89950000D01*
%TO.C,D2*%
X37700000Y-87410000D02*
X35850000Y-87410000D01*
X37700000Y-88610000D02*
X35850000Y-88610000D01*
X35850000Y-88610000D02*
X35850000Y-87410000D01*
%TO.C,D1*%
X37700000Y-89950000D02*
X35850000Y-89950000D01*
X37700000Y-91150000D02*
X35850000Y-91150000D01*
X35850000Y-91150000D02*
X35850000Y-89950000D01*
%TD*%
M02*
