%TF.GenerationSoftware,KiCad,Pcbnew,(5.1.6)-1*%
%TF.CreationDate,2020-07-20T16:14:19+09:00*%
%TF.ProjectId,PWM-LT8500,50574d2d-4c54-4383-9530-302e6b696361,rev?*%
%TF.SameCoordinates,Original*%
%TF.FileFunction,Paste,Bot*%
%TF.FilePolarity,Positive*%
%FSLAX46Y46*%
G04 Gerber Fmt 4.6, Leading zero omitted, Abs format (unit mm)*
G04 Created by KiCad (PCBNEW (5.1.6)-1) date 2020-07-20 16:14:19*
%MOMM*%
%LPD*%
G01*
G04 APERTURE LIST*
%ADD10R,0.600000X0.700000*%
G04 APERTURE END LIST*
D10*
%TO.C,D38*%
X126300000Y-72770000D03*
X127700000Y-72770000D03*
%TD*%
%TO.C,D48*%
X116300000Y-52450000D03*
X117700000Y-52450000D03*
%TD*%
%TO.C,D47*%
X116300000Y-54990000D03*
X117700000Y-54990000D03*
%TD*%
%TO.C,D46*%
X126300000Y-52450000D03*
X127700000Y-52450000D03*
%TD*%
%TO.C,D45*%
X126300000Y-54990000D03*
X127700000Y-54990000D03*
%TD*%
%TO.C,D44*%
X126300000Y-67690000D03*
X127700000Y-67690000D03*
%TD*%
%TO.C,D43*%
X126300000Y-70230000D03*
X127700000Y-70230000D03*
%TD*%
%TO.C,D42*%
X116300000Y-67690000D03*
X117700000Y-67690000D03*
%TD*%
%TO.C,D41*%
X116300000Y-70230000D03*
X117700000Y-70230000D03*
%TD*%
%TO.C,D40*%
X116300000Y-72770000D03*
X117700000Y-72770000D03*
%TD*%
%TO.C,D39*%
X116300000Y-75310000D03*
X117700000Y-75310000D03*
%TD*%
%TO.C,D37*%
X126300000Y-75310000D03*
X127700000Y-75310000D03*
%TD*%
%TO.C,D36*%
X126300000Y-88010000D03*
X127700000Y-88010000D03*
%TD*%
%TO.C,D35*%
X126300000Y-90550000D03*
X127700000Y-90550000D03*
%TD*%
%TO.C,D34*%
X116300000Y-88010000D03*
X117700000Y-88010000D03*
%TD*%
%TO.C,D33*%
X116300000Y-90550000D03*
X117700000Y-90550000D03*
%TD*%
%TO.C,D32*%
X76300000Y-52450000D03*
X77700000Y-52450000D03*
%TD*%
%TO.C,D31*%
X76300000Y-54990000D03*
X77700000Y-54990000D03*
%TD*%
%TO.C,D30*%
X86300000Y-52450000D03*
X87700000Y-52450000D03*
%TD*%
%TO.C,D29*%
X86300000Y-54990000D03*
X87700000Y-54990000D03*
%TD*%
%TO.C,D28*%
X86300000Y-67690000D03*
X87700000Y-67690000D03*
%TD*%
%TO.C,D27*%
X86300000Y-70230000D03*
X87700000Y-70230000D03*
%TD*%
%TO.C,D26*%
X76300000Y-67690000D03*
X77700000Y-67690000D03*
%TD*%
%TO.C,D25*%
X76300000Y-70230000D03*
X77700000Y-70230000D03*
%TD*%
%TO.C,D24*%
X76300000Y-72770000D03*
X77700000Y-72770000D03*
%TD*%
%TO.C,D23*%
X76300000Y-75310000D03*
X77700000Y-75310000D03*
%TD*%
%TO.C,D22*%
X86300000Y-72770000D03*
X87700000Y-72770000D03*
%TD*%
%TO.C,D21*%
X86300000Y-75310000D03*
X87700000Y-75310000D03*
%TD*%
%TO.C,D20*%
X86300000Y-88010000D03*
X87700000Y-88010000D03*
%TD*%
%TO.C,D19*%
X86300000Y-90550000D03*
X87700000Y-90550000D03*
%TD*%
%TO.C,D18*%
X76300000Y-88010000D03*
X77700000Y-88010000D03*
%TD*%
%TO.C,D17*%
X76300000Y-90550000D03*
X77700000Y-90550000D03*
%TD*%
%TO.C,D16*%
X36300000Y-52590000D03*
X37700000Y-52590000D03*
%TD*%
%TO.C,D15*%
X36300000Y-54850000D03*
X37700000Y-54850000D03*
%TD*%
%TO.C,D14*%
X46300000Y-52500000D03*
X47700000Y-52500000D03*
%TD*%
%TO.C,D13*%
X46300000Y-54980000D03*
X47700000Y-54980000D03*
%TD*%
%TO.C,D12*%
X46300000Y-67690000D03*
X47700000Y-67690000D03*
%TD*%
%TO.C,D11*%
X46300000Y-70230000D03*
X47700000Y-70230000D03*
%TD*%
%TO.C,D10*%
X36300000Y-67690000D03*
X37700000Y-67690000D03*
%TD*%
%TO.C,D9*%
X36300000Y-70230000D03*
X37700000Y-70230000D03*
%TD*%
%TO.C,D8*%
X36300000Y-72770000D03*
X37700000Y-72770000D03*
%TD*%
%TO.C,D7*%
X36300000Y-75310000D03*
X37700000Y-75310000D03*
%TD*%
%TO.C,D6*%
X46300000Y-72770000D03*
X47700000Y-72770000D03*
%TD*%
%TO.C,D5*%
X46300000Y-75310000D03*
X47700000Y-75310000D03*
%TD*%
%TO.C,D4*%
X46300000Y-88010000D03*
X47700000Y-88010000D03*
%TD*%
%TO.C,D3*%
X46300000Y-90550000D03*
X47700000Y-90550000D03*
%TD*%
%TO.C,D2*%
X36300000Y-88010000D03*
X37700000Y-88010000D03*
%TD*%
%TO.C,D1*%
X36300000Y-90550000D03*
X37700000Y-90550000D03*
%TD*%
M02*
