%TF.GenerationSoftware,KiCad,Pcbnew,(5.1.6)-1*%
%TF.CreationDate,2020-07-20T16:14:19+09:00*%
%TF.ProjectId,PWM-LT8500,50574d2d-4c54-4383-9530-302e6b696361,rev?*%
%TF.SameCoordinates,Original*%
%TF.FileFunction,Soldermask,Top*%
%TF.FilePolarity,Negative*%
%FSLAX46Y46*%
G04 Gerber Fmt 4.6, Leading zero omitted, Abs format (unit mm)*
G04 Created by KiCad (PCBNEW (5.1.6)-1) date 2020-07-20 16:14:19*
%MOMM*%
%LPD*%
G01*
G04 APERTURE LIST*
%ADD10R,0.400000X0.450000*%
%ADD11R,0.650000X0.400000*%
%ADD12R,0.400000X0.600000*%
%ADD13R,3.600000X2.000000*%
%ADD14R,1.500000X2.100000*%
%ADD15C,1.700000*%
%ADD16R,1.700000X1.700000*%
%ADD17O,1.800000X1.800000*%
%ADD18R,1.800000X1.800000*%
%ADD19R,0.610000X0.685000*%
%ADD20R,0.510000X0.570000*%
%ADD21R,4.090000X1.830000*%
%ADD22R,0.820000X0.510000*%
%ADD23C,3.100000*%
%ADD24O,3.400000X2.800000*%
G04 APERTURE END LIST*
D10*
%TO.C,U1*%
X70925000Y-38835000D03*
X70375000Y-38835000D03*
X69825000Y-38835000D03*
X69275000Y-38835000D03*
X68725000Y-38835000D03*
X68175000Y-38835000D03*
X67625000Y-38835000D03*
X70925000Y-43185000D03*
X70375000Y-43185000D03*
X69825000Y-43185000D03*
X69275000Y-43185000D03*
X68725000Y-43185000D03*
X68175000Y-43185000D03*
X67625000Y-43185000D03*
D11*
X66125000Y-38260000D03*
X66125000Y-38810000D03*
X66125000Y-39360000D03*
X66125000Y-39910000D03*
X66125000Y-40460000D03*
X66125000Y-41010000D03*
X66125000Y-41560000D03*
X66125000Y-42110000D03*
X66125000Y-42660000D03*
X66125000Y-43210000D03*
X66125000Y-43760000D03*
X71875000Y-38260000D03*
X71875000Y-38810000D03*
X71875000Y-39360000D03*
X71875000Y-39910000D03*
X71875000Y-40460000D03*
X71875000Y-41010000D03*
X71875000Y-41560000D03*
X71875000Y-42110000D03*
X71875000Y-42660000D03*
X71875000Y-43210000D03*
X71875000Y-43760000D03*
D12*
X71200000Y-38110000D03*
X70650000Y-38110000D03*
X70100000Y-38110000D03*
X69550000Y-38110000D03*
X69000000Y-38110000D03*
X68450000Y-38110000D03*
X67900000Y-38110000D03*
X67350000Y-38110000D03*
X66800000Y-38110000D03*
X71200000Y-43910000D03*
X70650000Y-43910000D03*
X70100000Y-43910000D03*
X69550000Y-43910000D03*
X69000000Y-43910000D03*
X68450000Y-43910000D03*
X67900000Y-43910000D03*
X67350000Y-43910000D03*
X66800000Y-43910000D03*
D10*
X67075000Y-38835000D03*
X67075000Y-43185000D03*
D13*
X69000000Y-40850000D03*
%TD*%
D14*
%TO.C,Y1*%
X48960000Y-37400000D03*
X54040000Y-37400000D03*
X54040000Y-41600000D03*
X48960000Y-41600000D03*
%TD*%
%TO.C,C1*%
G36*
G01*
X57548750Y-40587500D02*
X58111250Y-40587500D01*
G75*
G02*
X58355000Y-40831250I0J-243750D01*
G01*
X58355000Y-41318750D01*
G75*
G02*
X58111250Y-41562500I-243750J0D01*
G01*
X57548750Y-41562500D01*
G75*
G02*
X57305000Y-41318750I0J243750D01*
G01*
X57305000Y-40831250D01*
G75*
G02*
X57548750Y-40587500I243750J0D01*
G01*
G37*
G36*
G01*
X57548750Y-39012500D02*
X58111250Y-39012500D01*
G75*
G02*
X58355000Y-39256250I0J-243750D01*
G01*
X58355000Y-39743750D01*
G75*
G02*
X58111250Y-39987500I-243750J0D01*
G01*
X57548750Y-39987500D01*
G75*
G02*
X57305000Y-39743750I0J243750D01*
G01*
X57305000Y-39256250D01*
G75*
G02*
X57548750Y-39012500I243750J0D01*
G01*
G37*
%TD*%
%TO.C,C3*%
G36*
G01*
X73935000Y-34995000D02*
X73935000Y-33685000D01*
G75*
G02*
X74205000Y-33415000I270000J0D01*
G01*
X75015000Y-33415000D01*
G75*
G02*
X75285000Y-33685000I0J-270000D01*
G01*
X75285000Y-34995000D01*
G75*
G02*
X75015000Y-35265000I-270000J0D01*
G01*
X74205000Y-35265000D01*
G75*
G02*
X73935000Y-34995000I0J270000D01*
G01*
G37*
G36*
G01*
X71135000Y-34995000D02*
X71135000Y-33685000D01*
G75*
G02*
X71405000Y-33415000I270000J0D01*
G01*
X72215000Y-33415000D01*
G75*
G02*
X72485000Y-33685000I0J-270000D01*
G01*
X72485000Y-34995000D01*
G75*
G02*
X72215000Y-35265000I-270000J0D01*
G01*
X71405000Y-35265000D01*
G75*
G02*
X71135000Y-34995000I0J270000D01*
G01*
G37*
%TD*%
D15*
%TO.C,C5*%
X113960000Y-98000000D03*
D16*
X111460000Y-98000000D03*
%TD*%
D15*
%TO.C,C2*%
X35000000Y-38500000D03*
D16*
X35000000Y-36000000D03*
%TD*%
D17*
%TO.C,J6*%
X162500000Y-33460000D03*
D18*
X162500000Y-36000000D03*
%TD*%
%TO.C,R2*%
G36*
G01*
X150718750Y-47300000D02*
X151281250Y-47300000D01*
G75*
G02*
X151525000Y-47543750I0J-243750D01*
G01*
X151525000Y-48031250D01*
G75*
G02*
X151281250Y-48275000I-243750J0D01*
G01*
X150718750Y-48275000D01*
G75*
G02*
X150475000Y-48031250I0J243750D01*
G01*
X150475000Y-47543750D01*
G75*
G02*
X150718750Y-47300000I243750J0D01*
G01*
G37*
G36*
G01*
X150718750Y-45725000D02*
X151281250Y-45725000D01*
G75*
G02*
X151525000Y-45968750I0J-243750D01*
G01*
X151525000Y-46456250D01*
G75*
G02*
X151281250Y-46700000I-243750J0D01*
G01*
X150718750Y-46700000D01*
G75*
G02*
X150475000Y-46456250I0J243750D01*
G01*
X150475000Y-45968750D01*
G75*
G02*
X150718750Y-45725000I243750J0D01*
G01*
G37*
%TD*%
%TO.C,R1*%
G36*
G01*
X146718750Y-47300000D02*
X147281250Y-47300000D01*
G75*
G02*
X147525000Y-47543750I0J-243750D01*
G01*
X147525000Y-48031250D01*
G75*
G02*
X147281250Y-48275000I-243750J0D01*
G01*
X146718750Y-48275000D01*
G75*
G02*
X146475000Y-48031250I0J243750D01*
G01*
X146475000Y-47543750D01*
G75*
G02*
X146718750Y-47300000I243750J0D01*
G01*
G37*
G36*
G01*
X146718750Y-45725000D02*
X147281250Y-45725000D01*
G75*
G02*
X147525000Y-45968750I0J-243750D01*
G01*
X147525000Y-46456250D01*
G75*
G02*
X147281250Y-46700000I-243750J0D01*
G01*
X146718750Y-46700000D01*
G75*
G02*
X146475000Y-46456250I0J243750D01*
G01*
X146475000Y-45968750D01*
G75*
G02*
X146718750Y-45725000I243750J0D01*
G01*
G37*
%TD*%
%TO.C,D50*%
G36*
G01*
X150718750Y-43300000D02*
X151281250Y-43300000D01*
G75*
G02*
X151525000Y-43543750I0J-243750D01*
G01*
X151525000Y-44031250D01*
G75*
G02*
X151281250Y-44275000I-243750J0D01*
G01*
X150718750Y-44275000D01*
G75*
G02*
X150475000Y-44031250I0J243750D01*
G01*
X150475000Y-43543750D01*
G75*
G02*
X150718750Y-43300000I243750J0D01*
G01*
G37*
G36*
G01*
X150718750Y-41725000D02*
X151281250Y-41725000D01*
G75*
G02*
X151525000Y-41968750I0J-243750D01*
G01*
X151525000Y-42456250D01*
G75*
G02*
X151281250Y-42700000I-243750J0D01*
G01*
X150718750Y-42700000D01*
G75*
G02*
X150475000Y-42456250I0J243750D01*
G01*
X150475000Y-41968750D01*
G75*
G02*
X150718750Y-41725000I243750J0D01*
G01*
G37*
%TD*%
%TO.C,D49*%
G36*
G01*
X146718750Y-43300000D02*
X147281250Y-43300000D01*
G75*
G02*
X147525000Y-43543750I0J-243750D01*
G01*
X147525000Y-44031250D01*
G75*
G02*
X147281250Y-44275000I-243750J0D01*
G01*
X146718750Y-44275000D01*
G75*
G02*
X146475000Y-44031250I0J243750D01*
G01*
X146475000Y-43543750D01*
G75*
G02*
X146718750Y-43300000I243750J0D01*
G01*
G37*
G36*
G01*
X146718750Y-41725000D02*
X147281250Y-41725000D01*
G75*
G02*
X147525000Y-41968750I0J-243750D01*
G01*
X147525000Y-42456250D01*
G75*
G02*
X147281250Y-42700000I-243750J0D01*
G01*
X146718750Y-42700000D01*
G75*
G02*
X146475000Y-42456250I0J243750D01*
G01*
X146475000Y-41968750D01*
G75*
G02*
X146718750Y-41725000I243750J0D01*
G01*
G37*
%TD*%
D15*
%TO.C,C6*%
X73960000Y-98000000D03*
D16*
X71460000Y-98000000D03*
%TD*%
D15*
%TO.C,C4*%
X33960000Y-98000000D03*
D16*
X31460000Y-98000000D03*
%TD*%
D17*
%TO.C,J4*%
X73130000Y-29620000D03*
X73130000Y-27080000D03*
X70590000Y-29620000D03*
X70590000Y-27080000D03*
X68050000Y-29620000D03*
X68050000Y-27080000D03*
X65510000Y-29620000D03*
X65510000Y-27080000D03*
X62970000Y-29620000D03*
X62970000Y-27080000D03*
X60430000Y-29620000D03*
X60430000Y-27080000D03*
X57890000Y-29620000D03*
X57890000Y-27080000D03*
X55350000Y-29620000D03*
X55350000Y-27080000D03*
X52810000Y-29620000D03*
X52810000Y-27080000D03*
X50270000Y-29620000D03*
X50270000Y-27080000D03*
X47730000Y-29620000D03*
X47730000Y-27080000D03*
X45190000Y-29620000D03*
X45190000Y-27080000D03*
X42650000Y-29620000D03*
X42650000Y-27080000D03*
X40110000Y-29620000D03*
X40110000Y-27080000D03*
X37570000Y-29620000D03*
X37570000Y-27080000D03*
X35030000Y-29620000D03*
X35030000Y-27080000D03*
X32490000Y-29620000D03*
X32490000Y-27080000D03*
X29950000Y-29620000D03*
X29950000Y-27080000D03*
X27410000Y-29620000D03*
X27410000Y-27080000D03*
X24870000Y-29620000D03*
D18*
X24870000Y-27080000D03*
%TD*%
D17*
%TO.C,J1*%
X31460000Y-90550000D03*
X34000000Y-90550000D03*
X31460000Y-88010000D03*
X34000000Y-88010000D03*
X31460000Y-85470000D03*
X34000000Y-85470000D03*
X31460000Y-82930000D03*
X34000000Y-82930000D03*
X31460000Y-80390000D03*
X34000000Y-80390000D03*
X31460000Y-77850000D03*
X34000000Y-77850000D03*
X31460000Y-75310000D03*
X34000000Y-75310000D03*
X31460000Y-72770000D03*
X34000000Y-72770000D03*
X31460000Y-70230000D03*
X34000000Y-70230000D03*
X31460000Y-67690000D03*
X34000000Y-67690000D03*
X31460000Y-65150000D03*
X34000000Y-65150000D03*
X31460000Y-62610000D03*
X34000000Y-62610000D03*
X31460000Y-60070000D03*
X34000000Y-60070000D03*
X31460000Y-57530000D03*
X34000000Y-57530000D03*
X31460000Y-54990000D03*
X34000000Y-54990000D03*
X31460000Y-52450000D03*
D18*
X34000000Y-52450000D03*
%TD*%
D17*
%TO.C,J2*%
X71460000Y-90550000D03*
X74000000Y-90550000D03*
X71460000Y-88010000D03*
X74000000Y-88010000D03*
X71460000Y-85470000D03*
X74000000Y-85470000D03*
X71460000Y-82930000D03*
X74000000Y-82930000D03*
X71460000Y-80390000D03*
X74000000Y-80390000D03*
X71460000Y-77850000D03*
X74000000Y-77850000D03*
X71460000Y-75310000D03*
X74000000Y-75310000D03*
X71460000Y-72770000D03*
X74000000Y-72770000D03*
X71460000Y-70230000D03*
X74000000Y-70230000D03*
X71460000Y-67690000D03*
X74000000Y-67690000D03*
X71460000Y-65150000D03*
X74000000Y-65150000D03*
X71460000Y-62610000D03*
X74000000Y-62610000D03*
X71460000Y-60070000D03*
X74000000Y-60070000D03*
X71460000Y-57530000D03*
X74000000Y-57530000D03*
X71460000Y-54990000D03*
X74000000Y-54990000D03*
X71460000Y-52450000D03*
D18*
X74000000Y-52450000D03*
%TD*%
D17*
%TO.C,J3*%
X111460000Y-90550000D03*
X114000000Y-90550000D03*
X111460000Y-88010000D03*
X114000000Y-88010000D03*
X111460000Y-85470000D03*
X114000000Y-85470000D03*
X111460000Y-82930000D03*
X114000000Y-82930000D03*
X111460000Y-80390000D03*
X114000000Y-80390000D03*
X111460000Y-77850000D03*
X114000000Y-77850000D03*
X111460000Y-75310000D03*
X114000000Y-75310000D03*
X111460000Y-72770000D03*
X114000000Y-72770000D03*
X111460000Y-70230000D03*
X114000000Y-70230000D03*
X111460000Y-67690000D03*
X114000000Y-67690000D03*
X111460000Y-65150000D03*
X114000000Y-65150000D03*
X111460000Y-62610000D03*
X114000000Y-62610000D03*
X111460000Y-60070000D03*
X114000000Y-60070000D03*
X111460000Y-57530000D03*
X114000000Y-57530000D03*
X111460000Y-54990000D03*
X114000000Y-54990000D03*
X111460000Y-52450000D03*
D18*
X114000000Y-52450000D03*
%TD*%
D19*
%TO.C,Q24*%
X122185000Y-51505000D03*
X122185000Y-55935000D03*
D20*
X119209000Y-55935000D03*
X119209000Y-51505000D03*
D21*
X121000000Y-52605000D03*
X121000000Y-54835000D03*
D22*
X124795000Y-51815000D03*
X124795000Y-53085000D03*
X124795000Y-54355000D03*
X124795000Y-55625000D03*
%TD*%
D19*
%TO.C,Q23*%
X132050000Y-51505000D03*
X132050000Y-55935000D03*
D20*
X129074000Y-55935000D03*
X129074000Y-51505000D03*
D21*
X130865000Y-52605000D03*
X130865000Y-54835000D03*
D22*
X134660000Y-51815000D03*
X134660000Y-53085000D03*
X134660000Y-54355000D03*
X134660000Y-55625000D03*
%TD*%
D19*
%TO.C,Q22*%
X132050000Y-65465000D03*
X132050000Y-69895000D03*
D20*
X129074000Y-69895000D03*
X129074000Y-65465000D03*
D21*
X130865000Y-66565000D03*
X130865000Y-68795000D03*
D22*
X134660000Y-65775000D03*
X134660000Y-67045000D03*
X134660000Y-68315000D03*
X134660000Y-69585000D03*
%TD*%
D19*
%TO.C,Q21*%
X122185000Y-65465000D03*
X122185000Y-69895000D03*
D20*
X119209000Y-69895000D03*
X119209000Y-65465000D03*
D21*
X121000000Y-66565000D03*
X121000000Y-68795000D03*
D22*
X124795000Y-65775000D03*
X124795000Y-67045000D03*
X124795000Y-68315000D03*
X124795000Y-69585000D03*
%TD*%
D19*
%TO.C,Q20*%
X122185000Y-73105000D03*
X122185000Y-77535000D03*
D20*
X119209000Y-77535000D03*
X119209000Y-73105000D03*
D21*
X121000000Y-74205000D03*
X121000000Y-76435000D03*
D22*
X124795000Y-73415000D03*
X124795000Y-74685000D03*
X124795000Y-75955000D03*
X124795000Y-77225000D03*
%TD*%
D19*
%TO.C,Q19*%
X132050000Y-73105000D03*
X132050000Y-77535000D03*
D20*
X129074000Y-77535000D03*
X129074000Y-73105000D03*
D21*
X130865000Y-74205000D03*
X130865000Y-76435000D03*
D22*
X134660000Y-73415000D03*
X134660000Y-74685000D03*
X134660000Y-75955000D03*
X134660000Y-77225000D03*
%TD*%
D19*
%TO.C,Q18*%
X132050000Y-87065000D03*
X132050000Y-91495000D03*
D20*
X129074000Y-91495000D03*
X129074000Y-87065000D03*
D21*
X130865000Y-88165000D03*
X130865000Y-90395000D03*
D22*
X134660000Y-87375000D03*
X134660000Y-88645000D03*
X134660000Y-89915000D03*
X134660000Y-91185000D03*
%TD*%
D19*
%TO.C,Q17*%
X122185000Y-87065000D03*
X122185000Y-91495000D03*
D20*
X119209000Y-91495000D03*
X119209000Y-87065000D03*
D21*
X121000000Y-88165000D03*
X121000000Y-90395000D03*
D22*
X124795000Y-87375000D03*
X124795000Y-88645000D03*
X124795000Y-89915000D03*
X124795000Y-91185000D03*
%TD*%
D19*
%TO.C,Q16*%
X82185000Y-51505000D03*
X82185000Y-55935000D03*
D20*
X79209000Y-55935000D03*
X79209000Y-51505000D03*
D21*
X81000000Y-52605000D03*
X81000000Y-54835000D03*
D22*
X84795000Y-51815000D03*
X84795000Y-53085000D03*
X84795000Y-54355000D03*
X84795000Y-55625000D03*
%TD*%
D19*
%TO.C,Q15*%
X92050000Y-51505000D03*
X92050000Y-55935000D03*
D20*
X89074000Y-55935000D03*
X89074000Y-51505000D03*
D21*
X90865000Y-52605000D03*
X90865000Y-54835000D03*
D22*
X94660000Y-51815000D03*
X94660000Y-53085000D03*
X94660000Y-54355000D03*
X94660000Y-55625000D03*
%TD*%
D19*
%TO.C,Q14*%
X92050000Y-65465000D03*
X92050000Y-69895000D03*
D20*
X89074000Y-69895000D03*
X89074000Y-65465000D03*
D21*
X90865000Y-66565000D03*
X90865000Y-68795000D03*
D22*
X94660000Y-65775000D03*
X94660000Y-67045000D03*
X94660000Y-68315000D03*
X94660000Y-69585000D03*
%TD*%
D19*
%TO.C,Q13*%
X82185000Y-65465000D03*
X82185000Y-69895000D03*
D20*
X79209000Y-69895000D03*
X79209000Y-65465000D03*
D21*
X81000000Y-66565000D03*
X81000000Y-68795000D03*
D22*
X84795000Y-65775000D03*
X84795000Y-67045000D03*
X84795000Y-68315000D03*
X84795000Y-69585000D03*
%TD*%
D19*
%TO.C,Q12*%
X82185000Y-73105000D03*
X82185000Y-77535000D03*
D20*
X79209000Y-77535000D03*
X79209000Y-73105000D03*
D21*
X81000000Y-74205000D03*
X81000000Y-76435000D03*
D22*
X84795000Y-73415000D03*
X84795000Y-74685000D03*
X84795000Y-75955000D03*
X84795000Y-77225000D03*
%TD*%
D19*
%TO.C,Q11*%
X92050000Y-73105000D03*
X92050000Y-77535000D03*
D20*
X89074000Y-77535000D03*
X89074000Y-73105000D03*
D21*
X90865000Y-74205000D03*
X90865000Y-76435000D03*
D22*
X94660000Y-73415000D03*
X94660000Y-74685000D03*
X94660000Y-75955000D03*
X94660000Y-77225000D03*
%TD*%
D19*
%TO.C,Q10*%
X92050000Y-87065000D03*
X92050000Y-91495000D03*
D20*
X89074000Y-91495000D03*
X89074000Y-87065000D03*
D21*
X90865000Y-88165000D03*
X90865000Y-90395000D03*
D22*
X94660000Y-87375000D03*
X94660000Y-88645000D03*
X94660000Y-89915000D03*
X94660000Y-91185000D03*
%TD*%
D19*
%TO.C,Q9*%
X82185000Y-87065000D03*
X82185000Y-91495000D03*
D20*
X79209000Y-91495000D03*
X79209000Y-87065000D03*
D21*
X81000000Y-88165000D03*
X81000000Y-90395000D03*
D22*
X84795000Y-87375000D03*
X84795000Y-88645000D03*
X84795000Y-89915000D03*
X84795000Y-91185000D03*
%TD*%
D19*
%TO.C,Q8*%
X42185000Y-51505000D03*
X42185000Y-55935000D03*
D20*
X39209000Y-55935000D03*
X39209000Y-51505000D03*
D21*
X41000000Y-52605000D03*
X41000000Y-54835000D03*
D22*
X44795000Y-51815000D03*
X44795000Y-53085000D03*
X44795000Y-54355000D03*
X44795000Y-55625000D03*
%TD*%
D19*
%TO.C,Q7*%
X52050000Y-51505000D03*
X52050000Y-55935000D03*
D20*
X49074000Y-55935000D03*
X49074000Y-51505000D03*
D21*
X50865000Y-52605000D03*
X50865000Y-54835000D03*
D22*
X54660000Y-51815000D03*
X54660000Y-53085000D03*
X54660000Y-54355000D03*
X54660000Y-55625000D03*
%TD*%
D19*
%TO.C,Q6*%
X52050000Y-65465000D03*
X52050000Y-69895000D03*
D20*
X49074000Y-69895000D03*
X49074000Y-65465000D03*
D21*
X50865000Y-66565000D03*
X50865000Y-68795000D03*
D22*
X54660000Y-65775000D03*
X54660000Y-67045000D03*
X54660000Y-68315000D03*
X54660000Y-69585000D03*
%TD*%
D19*
%TO.C,Q5*%
X42185000Y-65465000D03*
X42185000Y-69895000D03*
D20*
X39209000Y-69895000D03*
X39209000Y-65465000D03*
D21*
X41000000Y-66565000D03*
X41000000Y-68795000D03*
D22*
X44795000Y-65775000D03*
X44795000Y-67045000D03*
X44795000Y-68315000D03*
X44795000Y-69585000D03*
%TD*%
D19*
%TO.C,Q4*%
X42185000Y-73105000D03*
X42185000Y-77535000D03*
D20*
X39209000Y-77535000D03*
X39209000Y-73105000D03*
D21*
X41000000Y-74205000D03*
X41000000Y-76435000D03*
D22*
X44795000Y-73415000D03*
X44795000Y-74685000D03*
X44795000Y-75955000D03*
X44795000Y-77225000D03*
%TD*%
D19*
%TO.C,Q3*%
X52050000Y-73105000D03*
X52050000Y-77535000D03*
D20*
X49074000Y-77535000D03*
X49074000Y-73105000D03*
D21*
X50865000Y-74205000D03*
X50865000Y-76435000D03*
D22*
X54660000Y-73415000D03*
X54660000Y-74685000D03*
X54660000Y-75955000D03*
X54660000Y-77225000D03*
%TD*%
D19*
%TO.C,Q2*%
X52050000Y-87065000D03*
X52050000Y-91495000D03*
D20*
X49074000Y-91495000D03*
X49074000Y-87065000D03*
D21*
X50865000Y-88165000D03*
X50865000Y-90395000D03*
D22*
X54660000Y-87375000D03*
X54660000Y-88645000D03*
X54660000Y-89915000D03*
X54660000Y-91185000D03*
%TD*%
D19*
%TO.C,Q1*%
X42185000Y-87065000D03*
X42185000Y-91495000D03*
D20*
X39209000Y-91495000D03*
X39209000Y-87065000D03*
D21*
X41000000Y-88165000D03*
X41000000Y-90395000D03*
D22*
X44795000Y-87375000D03*
X44795000Y-88645000D03*
X44795000Y-89915000D03*
X44795000Y-91185000D03*
%TD*%
D23*
%TO.C,J5*%
X162040000Y-43100000D03*
X162040000Y-98700000D03*
D24*
X162500000Y-47800000D03*
X162500000Y-52000000D03*
X162500000Y-56200000D03*
X162500000Y-60400000D03*
X162500000Y-64600000D03*
X162500000Y-68800000D03*
X162500000Y-73000000D03*
X162500000Y-77200000D03*
X162500000Y-81400000D03*
X162500000Y-85600000D03*
X162500000Y-89800000D03*
X162500000Y-94000000D03*
X157000000Y-47800000D03*
X157000000Y-52000000D03*
X157000000Y-56200000D03*
X157000000Y-60400000D03*
X157000000Y-64600000D03*
X157000000Y-68800000D03*
X157000000Y-73000000D03*
X157000000Y-77200000D03*
X157000000Y-81400000D03*
X157000000Y-85600000D03*
X157000000Y-89800000D03*
G36*
G01*
X158440740Y-95400000D02*
X155559260Y-95400000D01*
G75*
G02*
X155300000Y-95140740I0J259260D01*
G01*
X155300000Y-92859260D01*
G75*
G02*
X155559260Y-92600000I259260J0D01*
G01*
X158440740Y-92600000D01*
G75*
G02*
X158700000Y-92859260I0J-259260D01*
G01*
X158700000Y-95140740D01*
G75*
G02*
X158440740Y-95400000I-259260J0D01*
G01*
G37*
%TD*%
M02*
