%TF.GenerationSoftware,KiCad,Pcbnew,(5.1.6)-1*%
%TF.CreationDate,2020-07-20T16:14:19+09:00*%
%TF.ProjectId,PWM-LT8500,50574d2d-4c54-4383-9530-302e6b696361,rev?*%
%TF.SameCoordinates,Original*%
%TF.FileFunction,Paste,Top*%
%TF.FilePolarity,Positive*%
%FSLAX46Y46*%
G04 Gerber Fmt 4.6, Leading zero omitted, Abs format (unit mm)*
G04 Created by KiCad (PCBNEW (5.1.6)-1) date 2020-07-20 16:14:19*
%MOMM*%
%LPD*%
G01*
G04 APERTURE LIST*
%ADD10R,0.300000X0.350000*%
%ADD11R,0.550000X0.300000*%
%ADD12R,0.300000X0.500000*%
%ADD13R,3.500000X1.900000*%
%ADD14R,1.400000X2.000000*%
%ADD15R,0.510000X0.585000*%
%ADD16R,0.410000X0.470000*%
%ADD17R,3.990000X1.730000*%
%ADD18R,0.720000X0.410000*%
G04 APERTURE END LIST*
D10*
%TO.C,U1*%
X70925000Y-38835000D03*
X70375000Y-38835000D03*
X69825000Y-38835000D03*
X69275000Y-38835000D03*
X68725000Y-38835000D03*
X68175000Y-38835000D03*
X67625000Y-38835000D03*
X70925000Y-43185000D03*
X70375000Y-43185000D03*
X69825000Y-43185000D03*
X69275000Y-43185000D03*
X68725000Y-43185000D03*
X68175000Y-43185000D03*
X67625000Y-43185000D03*
D11*
X66125000Y-38260000D03*
X66125000Y-38810000D03*
X66125000Y-39360000D03*
X66125000Y-39910000D03*
X66125000Y-40460000D03*
X66125000Y-41010000D03*
X66125000Y-41560000D03*
X66125000Y-42110000D03*
X66125000Y-42660000D03*
X66125000Y-43210000D03*
X66125000Y-43760000D03*
X71875000Y-38260000D03*
X71875000Y-38810000D03*
X71875000Y-39360000D03*
X71875000Y-39910000D03*
X71875000Y-40460000D03*
X71875000Y-41010000D03*
X71875000Y-41560000D03*
X71875000Y-42110000D03*
X71875000Y-42660000D03*
X71875000Y-43210000D03*
X71875000Y-43760000D03*
D12*
X71200000Y-38110000D03*
X70650000Y-38110000D03*
X70100000Y-38110000D03*
X69550000Y-38110000D03*
X69000000Y-38110000D03*
X68450000Y-38110000D03*
X67900000Y-38110000D03*
X67350000Y-38110000D03*
X66800000Y-38110000D03*
X71200000Y-43910000D03*
X70650000Y-43910000D03*
X70100000Y-43910000D03*
X69550000Y-43910000D03*
X69000000Y-43910000D03*
X68450000Y-43910000D03*
X67900000Y-43910000D03*
X67350000Y-43910000D03*
X66800000Y-43910000D03*
D10*
X67075000Y-38835000D03*
X67075000Y-43185000D03*
D13*
X69000000Y-40850000D03*
%TD*%
D14*
%TO.C,Y1*%
X48960000Y-37400000D03*
X54040000Y-37400000D03*
X54040000Y-41600000D03*
X48960000Y-41600000D03*
%TD*%
%TO.C,C1*%
G36*
G01*
X57573750Y-40637500D02*
X58086250Y-40637500D01*
G75*
G02*
X58305000Y-40856250I0J-218750D01*
G01*
X58305000Y-41293750D01*
G75*
G02*
X58086250Y-41512500I-218750J0D01*
G01*
X57573750Y-41512500D01*
G75*
G02*
X57355000Y-41293750I0J218750D01*
G01*
X57355000Y-40856250D01*
G75*
G02*
X57573750Y-40637500I218750J0D01*
G01*
G37*
G36*
G01*
X57573750Y-39062500D02*
X58086250Y-39062500D01*
G75*
G02*
X58305000Y-39281250I0J-218750D01*
G01*
X58305000Y-39718750D01*
G75*
G02*
X58086250Y-39937500I-218750J0D01*
G01*
X57573750Y-39937500D01*
G75*
G02*
X57355000Y-39718750I0J218750D01*
G01*
X57355000Y-39281250D01*
G75*
G02*
X57573750Y-39062500I218750J0D01*
G01*
G37*
%TD*%
%TO.C,C3*%
G36*
G01*
X73985000Y-34965000D02*
X73985000Y-33715000D01*
G75*
G02*
X74235000Y-33465000I250000J0D01*
G01*
X74985000Y-33465000D01*
G75*
G02*
X75235000Y-33715000I0J-250000D01*
G01*
X75235000Y-34965000D01*
G75*
G02*
X74985000Y-35215000I-250000J0D01*
G01*
X74235000Y-35215000D01*
G75*
G02*
X73985000Y-34965000I0J250000D01*
G01*
G37*
G36*
G01*
X71185000Y-34965000D02*
X71185000Y-33715000D01*
G75*
G02*
X71435000Y-33465000I250000J0D01*
G01*
X72185000Y-33465000D01*
G75*
G02*
X72435000Y-33715000I0J-250000D01*
G01*
X72435000Y-34965000D01*
G75*
G02*
X72185000Y-35215000I-250000J0D01*
G01*
X71435000Y-35215000D01*
G75*
G02*
X71185000Y-34965000I0J250000D01*
G01*
G37*
%TD*%
%TO.C,R2*%
G36*
G01*
X150743750Y-47350000D02*
X151256250Y-47350000D01*
G75*
G02*
X151475000Y-47568750I0J-218750D01*
G01*
X151475000Y-48006250D01*
G75*
G02*
X151256250Y-48225000I-218750J0D01*
G01*
X150743750Y-48225000D01*
G75*
G02*
X150525000Y-48006250I0J218750D01*
G01*
X150525000Y-47568750D01*
G75*
G02*
X150743750Y-47350000I218750J0D01*
G01*
G37*
G36*
G01*
X150743750Y-45775000D02*
X151256250Y-45775000D01*
G75*
G02*
X151475000Y-45993750I0J-218750D01*
G01*
X151475000Y-46431250D01*
G75*
G02*
X151256250Y-46650000I-218750J0D01*
G01*
X150743750Y-46650000D01*
G75*
G02*
X150525000Y-46431250I0J218750D01*
G01*
X150525000Y-45993750D01*
G75*
G02*
X150743750Y-45775000I218750J0D01*
G01*
G37*
%TD*%
%TO.C,R1*%
G36*
G01*
X146743750Y-47350000D02*
X147256250Y-47350000D01*
G75*
G02*
X147475000Y-47568750I0J-218750D01*
G01*
X147475000Y-48006250D01*
G75*
G02*
X147256250Y-48225000I-218750J0D01*
G01*
X146743750Y-48225000D01*
G75*
G02*
X146525000Y-48006250I0J218750D01*
G01*
X146525000Y-47568750D01*
G75*
G02*
X146743750Y-47350000I218750J0D01*
G01*
G37*
G36*
G01*
X146743750Y-45775000D02*
X147256250Y-45775000D01*
G75*
G02*
X147475000Y-45993750I0J-218750D01*
G01*
X147475000Y-46431250D01*
G75*
G02*
X147256250Y-46650000I-218750J0D01*
G01*
X146743750Y-46650000D01*
G75*
G02*
X146525000Y-46431250I0J218750D01*
G01*
X146525000Y-45993750D01*
G75*
G02*
X146743750Y-45775000I218750J0D01*
G01*
G37*
%TD*%
%TO.C,D50*%
G36*
G01*
X150743750Y-43350000D02*
X151256250Y-43350000D01*
G75*
G02*
X151475000Y-43568750I0J-218750D01*
G01*
X151475000Y-44006250D01*
G75*
G02*
X151256250Y-44225000I-218750J0D01*
G01*
X150743750Y-44225000D01*
G75*
G02*
X150525000Y-44006250I0J218750D01*
G01*
X150525000Y-43568750D01*
G75*
G02*
X150743750Y-43350000I218750J0D01*
G01*
G37*
G36*
G01*
X150743750Y-41775000D02*
X151256250Y-41775000D01*
G75*
G02*
X151475000Y-41993750I0J-218750D01*
G01*
X151475000Y-42431250D01*
G75*
G02*
X151256250Y-42650000I-218750J0D01*
G01*
X150743750Y-42650000D01*
G75*
G02*
X150525000Y-42431250I0J218750D01*
G01*
X150525000Y-41993750D01*
G75*
G02*
X150743750Y-41775000I218750J0D01*
G01*
G37*
%TD*%
%TO.C,D49*%
G36*
G01*
X146743750Y-43350000D02*
X147256250Y-43350000D01*
G75*
G02*
X147475000Y-43568750I0J-218750D01*
G01*
X147475000Y-44006250D01*
G75*
G02*
X147256250Y-44225000I-218750J0D01*
G01*
X146743750Y-44225000D01*
G75*
G02*
X146525000Y-44006250I0J218750D01*
G01*
X146525000Y-43568750D01*
G75*
G02*
X146743750Y-43350000I218750J0D01*
G01*
G37*
G36*
G01*
X146743750Y-41775000D02*
X147256250Y-41775000D01*
G75*
G02*
X147475000Y-41993750I0J-218750D01*
G01*
X147475000Y-42431250D01*
G75*
G02*
X147256250Y-42650000I-218750J0D01*
G01*
X146743750Y-42650000D01*
G75*
G02*
X146525000Y-42431250I0J218750D01*
G01*
X146525000Y-41993750D01*
G75*
G02*
X146743750Y-41775000I218750J0D01*
G01*
G37*
%TD*%
D15*
%TO.C,Q24*%
X122185000Y-51505000D03*
X122185000Y-55935000D03*
D16*
X119209000Y-55935000D03*
X119209000Y-51505000D03*
D17*
X121000000Y-52605000D03*
X121000000Y-54835000D03*
D18*
X124795000Y-51815000D03*
X124795000Y-53085000D03*
X124795000Y-54355000D03*
X124795000Y-55625000D03*
%TD*%
D15*
%TO.C,Q23*%
X132050000Y-51505000D03*
X132050000Y-55935000D03*
D16*
X129074000Y-55935000D03*
X129074000Y-51505000D03*
D17*
X130865000Y-52605000D03*
X130865000Y-54835000D03*
D18*
X134660000Y-51815000D03*
X134660000Y-53085000D03*
X134660000Y-54355000D03*
X134660000Y-55625000D03*
%TD*%
D15*
%TO.C,Q22*%
X132050000Y-65465000D03*
X132050000Y-69895000D03*
D16*
X129074000Y-69895000D03*
X129074000Y-65465000D03*
D17*
X130865000Y-66565000D03*
X130865000Y-68795000D03*
D18*
X134660000Y-65775000D03*
X134660000Y-67045000D03*
X134660000Y-68315000D03*
X134660000Y-69585000D03*
%TD*%
D15*
%TO.C,Q21*%
X122185000Y-65465000D03*
X122185000Y-69895000D03*
D16*
X119209000Y-69895000D03*
X119209000Y-65465000D03*
D17*
X121000000Y-66565000D03*
X121000000Y-68795000D03*
D18*
X124795000Y-65775000D03*
X124795000Y-67045000D03*
X124795000Y-68315000D03*
X124795000Y-69585000D03*
%TD*%
D15*
%TO.C,Q20*%
X122185000Y-73105000D03*
X122185000Y-77535000D03*
D16*
X119209000Y-77535000D03*
X119209000Y-73105000D03*
D17*
X121000000Y-74205000D03*
X121000000Y-76435000D03*
D18*
X124795000Y-73415000D03*
X124795000Y-74685000D03*
X124795000Y-75955000D03*
X124795000Y-77225000D03*
%TD*%
D15*
%TO.C,Q19*%
X132050000Y-73105000D03*
X132050000Y-77535000D03*
D16*
X129074000Y-77535000D03*
X129074000Y-73105000D03*
D17*
X130865000Y-74205000D03*
X130865000Y-76435000D03*
D18*
X134660000Y-73415000D03*
X134660000Y-74685000D03*
X134660000Y-75955000D03*
X134660000Y-77225000D03*
%TD*%
D15*
%TO.C,Q18*%
X132050000Y-87065000D03*
X132050000Y-91495000D03*
D16*
X129074000Y-91495000D03*
X129074000Y-87065000D03*
D17*
X130865000Y-88165000D03*
X130865000Y-90395000D03*
D18*
X134660000Y-87375000D03*
X134660000Y-88645000D03*
X134660000Y-89915000D03*
X134660000Y-91185000D03*
%TD*%
D15*
%TO.C,Q17*%
X122185000Y-87065000D03*
X122185000Y-91495000D03*
D16*
X119209000Y-91495000D03*
X119209000Y-87065000D03*
D17*
X121000000Y-88165000D03*
X121000000Y-90395000D03*
D18*
X124795000Y-87375000D03*
X124795000Y-88645000D03*
X124795000Y-89915000D03*
X124795000Y-91185000D03*
%TD*%
D15*
%TO.C,Q16*%
X82185000Y-51505000D03*
X82185000Y-55935000D03*
D16*
X79209000Y-55935000D03*
X79209000Y-51505000D03*
D17*
X81000000Y-52605000D03*
X81000000Y-54835000D03*
D18*
X84795000Y-51815000D03*
X84795000Y-53085000D03*
X84795000Y-54355000D03*
X84795000Y-55625000D03*
%TD*%
D15*
%TO.C,Q15*%
X92050000Y-51505000D03*
X92050000Y-55935000D03*
D16*
X89074000Y-55935000D03*
X89074000Y-51505000D03*
D17*
X90865000Y-52605000D03*
X90865000Y-54835000D03*
D18*
X94660000Y-51815000D03*
X94660000Y-53085000D03*
X94660000Y-54355000D03*
X94660000Y-55625000D03*
%TD*%
D15*
%TO.C,Q14*%
X92050000Y-65465000D03*
X92050000Y-69895000D03*
D16*
X89074000Y-69895000D03*
X89074000Y-65465000D03*
D17*
X90865000Y-66565000D03*
X90865000Y-68795000D03*
D18*
X94660000Y-65775000D03*
X94660000Y-67045000D03*
X94660000Y-68315000D03*
X94660000Y-69585000D03*
%TD*%
D15*
%TO.C,Q13*%
X82185000Y-65465000D03*
X82185000Y-69895000D03*
D16*
X79209000Y-69895000D03*
X79209000Y-65465000D03*
D17*
X81000000Y-66565000D03*
X81000000Y-68795000D03*
D18*
X84795000Y-65775000D03*
X84795000Y-67045000D03*
X84795000Y-68315000D03*
X84795000Y-69585000D03*
%TD*%
D15*
%TO.C,Q12*%
X82185000Y-73105000D03*
X82185000Y-77535000D03*
D16*
X79209000Y-77535000D03*
X79209000Y-73105000D03*
D17*
X81000000Y-74205000D03*
X81000000Y-76435000D03*
D18*
X84795000Y-73415000D03*
X84795000Y-74685000D03*
X84795000Y-75955000D03*
X84795000Y-77225000D03*
%TD*%
D15*
%TO.C,Q11*%
X92050000Y-73105000D03*
X92050000Y-77535000D03*
D16*
X89074000Y-77535000D03*
X89074000Y-73105000D03*
D17*
X90865000Y-74205000D03*
X90865000Y-76435000D03*
D18*
X94660000Y-73415000D03*
X94660000Y-74685000D03*
X94660000Y-75955000D03*
X94660000Y-77225000D03*
%TD*%
D15*
%TO.C,Q10*%
X92050000Y-87065000D03*
X92050000Y-91495000D03*
D16*
X89074000Y-91495000D03*
X89074000Y-87065000D03*
D17*
X90865000Y-88165000D03*
X90865000Y-90395000D03*
D18*
X94660000Y-87375000D03*
X94660000Y-88645000D03*
X94660000Y-89915000D03*
X94660000Y-91185000D03*
%TD*%
D15*
%TO.C,Q9*%
X82185000Y-87065000D03*
X82185000Y-91495000D03*
D16*
X79209000Y-91495000D03*
X79209000Y-87065000D03*
D17*
X81000000Y-88165000D03*
X81000000Y-90395000D03*
D18*
X84795000Y-87375000D03*
X84795000Y-88645000D03*
X84795000Y-89915000D03*
X84795000Y-91185000D03*
%TD*%
D15*
%TO.C,Q8*%
X42185000Y-51505000D03*
X42185000Y-55935000D03*
D16*
X39209000Y-55935000D03*
X39209000Y-51505000D03*
D17*
X41000000Y-52605000D03*
X41000000Y-54835000D03*
D18*
X44795000Y-51815000D03*
X44795000Y-53085000D03*
X44795000Y-54355000D03*
X44795000Y-55625000D03*
%TD*%
D15*
%TO.C,Q7*%
X52050000Y-51505000D03*
X52050000Y-55935000D03*
D16*
X49074000Y-55935000D03*
X49074000Y-51505000D03*
D17*
X50865000Y-52605000D03*
X50865000Y-54835000D03*
D18*
X54660000Y-51815000D03*
X54660000Y-53085000D03*
X54660000Y-54355000D03*
X54660000Y-55625000D03*
%TD*%
D15*
%TO.C,Q6*%
X52050000Y-65465000D03*
X52050000Y-69895000D03*
D16*
X49074000Y-69895000D03*
X49074000Y-65465000D03*
D17*
X50865000Y-66565000D03*
X50865000Y-68795000D03*
D18*
X54660000Y-65775000D03*
X54660000Y-67045000D03*
X54660000Y-68315000D03*
X54660000Y-69585000D03*
%TD*%
D15*
%TO.C,Q5*%
X42185000Y-65465000D03*
X42185000Y-69895000D03*
D16*
X39209000Y-69895000D03*
X39209000Y-65465000D03*
D17*
X41000000Y-66565000D03*
X41000000Y-68795000D03*
D18*
X44795000Y-65775000D03*
X44795000Y-67045000D03*
X44795000Y-68315000D03*
X44795000Y-69585000D03*
%TD*%
D15*
%TO.C,Q4*%
X42185000Y-73105000D03*
X42185000Y-77535000D03*
D16*
X39209000Y-77535000D03*
X39209000Y-73105000D03*
D17*
X41000000Y-74205000D03*
X41000000Y-76435000D03*
D18*
X44795000Y-73415000D03*
X44795000Y-74685000D03*
X44795000Y-75955000D03*
X44795000Y-77225000D03*
%TD*%
D15*
%TO.C,Q3*%
X52050000Y-73105000D03*
X52050000Y-77535000D03*
D16*
X49074000Y-77535000D03*
X49074000Y-73105000D03*
D17*
X50865000Y-74205000D03*
X50865000Y-76435000D03*
D18*
X54660000Y-73415000D03*
X54660000Y-74685000D03*
X54660000Y-75955000D03*
X54660000Y-77225000D03*
%TD*%
D15*
%TO.C,Q2*%
X52050000Y-87065000D03*
X52050000Y-91495000D03*
D16*
X49074000Y-91495000D03*
X49074000Y-87065000D03*
D17*
X50865000Y-88165000D03*
X50865000Y-90395000D03*
D18*
X54660000Y-87375000D03*
X54660000Y-88645000D03*
X54660000Y-89915000D03*
X54660000Y-91185000D03*
%TD*%
D15*
%TO.C,Q1*%
X42185000Y-87065000D03*
X42185000Y-91495000D03*
D16*
X39209000Y-91495000D03*
X39209000Y-87065000D03*
D17*
X41000000Y-88165000D03*
X41000000Y-90395000D03*
D18*
X44795000Y-87375000D03*
X44795000Y-88645000D03*
X44795000Y-89915000D03*
X44795000Y-91185000D03*
%TD*%
M02*
